<?xml version="1.0" encoding="utf-8"?>
<!-- Generator: Adobe Illustrator 23.0.1, SVG Export Plug-In . SVG Version: 6.00 Build 0)  -->
<svg version="1.1" id="Layer_1" xmlns="http://www.w3.org/2000/svg" xmlns:xlink="http://www.w3.org/1999/xlink" x="0px" y="0px"
	 viewBox="0 0 595.3 841.9" style="enable-background:new 0 0 595.3 841.9;" xml:space="preserve">
<style type="text/css">
	.st0{fill:#028FBE;}
</style>
<path class="st0" d="M502,431.9c-8.8,0-17.6,0-27.1,0c0-2,0-3.7,0-5.5c0-19.5,0.1-39,0-58.5c0-4.6-0.4-9.3-0.9-13.9
	c-0.9-9.5-6-15.9-13.4-17.1c-9.3-1.5-18.4,2.8-21.5,11.5c-2.3,6.4-3.5,13.6-3.7,20.4c-0.5,19-0.2,38-0.2,57c0,1.8,0,3.6,0,5.8
	c-9,0-17.7,0-27.1,0c0-1.8,0-3.5,0-5.3c-0.1-22-0.1-44-0.2-66c0-3.3-0.4-6.7-1.1-9.9c-1.6-6.5-5-11.9-12-13.3
	c-7.9-1.6-15.6,0.2-19.8,7.2c-3.1,5.2-5.5,11.6-5.7,17.6c-0.8,21.3-0.4,42.6-0.5,64c0,1.8,0,3.6,0,5.7c-9.1,0-17.9,0-26.8,0
	c0-38.6,0-77,0-115.9c8.8,0,17.5,0,26.7,0c0,2.9,0,5.8,0,10.5c7.1-8.6,15.5-12,24.4-14.4c3,0,6,0,9,0c8.3,2.4,16.3,5.3,22,12.2
	c1.3,1.6,2.6,3.2,4.1,5c5.5-7.8,12.7-12.2,21.1-15c2.3-0.7,4.5-1.5,6.8-2.3c4,0,8,0,12,0c1.5,0.5,2.9,1.2,4.4,1.6
	c15.3,3.9,24.5,13.6,27.8,29c0.4,1.8,1.2,3.6,1.8,5.3C502,375.9,502,403.9,502,431.9z"/>
<path class="st0" d="M159,311.9c2.9,0.9,6,1.5,8.7,2.9c6.8,3.7,13.3,7.8,19.9,11.7c0-2.7,0-6.5,0-10.8c9.2,0,17.9,0,27,0
	c0,38.6,0,77.1,0,115.9c-8.8,0-17.6,0-26.6,0c0-3.7,0-7.1,0-11.1c-0.9,0.4-1.6,0.4-1.9,0.8c-7.2,7.4-15.7,12.1-26,13.6
	c-0.4,0.1-0.7,0.6-1,0.9c-4.7,0-9.3,0-14,0c-0.8-0.4-1.6-0.9-2.5-1.1c-23.8-4.9-37.5-20.1-44.1-42.7c-0.7-2.4-1.6-4.8-2.4-7.2
	c0-7.7,0-15.3,0-23c0.6-1.8,1.4-3.5,1.9-5.4c5.4-21,17.8-35.5,38.9-41.9c3.4-1,6.8-1.8,10.2-2.7C151,311.9,155,311.9,159,311.9z
	 M189.3,372.7c-0.3-2.4-0.6-6.2-1.4-10c-3.2-14.8-14.3-24.8-28.5-25.9c-15.4-1.2-27.4,6.5-32.9,21.3c-4.2,11.4-3.9,22.9,1,34
	c7.7,17.5,27.5,24.2,44.3,15.1C185,400,189,388,189.3,372.7z"/>
<path class="st0" d="M308,311.9c2.6,0.8,5.2,1.6,7.8,2.5c2.6,0.9,5.1,2.1,8.1,3.3c-3.8,8.4-7.3,16.2-10.6,23.5
	c-5.7-1-11-2.9-16.3-2.8c-12,0.3-20,8.2-21.9,20.6c-0.6,3.9-0.8,8-0.9,11.9c-0.1,20.1,0,40.3,0,60.7c-9.1,0-17.8,0-26.7,0
	c0-38.7,0-77.1,0-115.9c8.7,0,17.5,0,26.7,0c0,3,0,5.9,0,8.8c6.8-6.3,14.4-10,22.8-12.6C300.7,311.9,304.3,311.9,308,311.9z"/>
</svg>
