<?xml version="1.0" encoding="utf-8"?>
<!-- Generator: Adobe Illustrator 23.0.1, SVG Export Plug-In . SVG Version: 6.00 Build 0)  -->
<svg version="1.1" id="Layer_1" xmlns="http://www.w3.org/2000/svg" xmlns:xlink="http://www.w3.org/1999/xlink" x="0px" y="0px"
	 viewBox="0 0 324 282.4" style="enable-background:new 0 0 324 282.4;" xml:space="preserve">
<style type="text/css">
	.st0{fill:#FAFAFA;}
	.st1{fill:#060606;}
	.st2{fill:#010101;}
	.st3{fill:#1171B8;}
	.st4{fill:#9C9C9C;}
	.st5{fill:#979797;}
	.st6{fill:#9D9D9D;}
	.st7{fill:#9F9F9F;}
	.st8{fill:#AFC9DC;}
	.st9{fill:#A3A3A3;}
	.st10{fill:#ECECEC;}
	.st11{fill:#999999;}
	.st12{fill:#B9CEDD;}
	.st13{fill:#F2F2F2;}
	.st14{fill:#A5A5A5;}
	.st15{fill:#9A9A9A;}
	.st16{fill:#BBBBBB;}
	.st17{fill:#A4A4A4;}
	.st18{fill:#9E9E9E;}
	.st19{fill:#B7B7B7;}
	.st20{fill:#A0A0A0;}
	.st21{fill:#F7F7F7;}
	.st22{fill:#D5D5D5;}
	.st23{fill:#ACACAB;}
	.st24{fill:#9B9B9B;}
</style>
<path class="st0" d="M5.4,144.8c2.9-2.1,5.6-4.1,8.7-5.5c2.4-1,5.3-2.1,7.7-1.7c8.6,1.5,16.8,0.5,25-2c5.4-1.6,10.7-3.4,16.1-5
	c1.3-0.4,2.9-0.1,4.5-0.1c0-1.7,0.4-4-0.1-6c-0.3-1.3-2.1-3.1-3.2-3.1c-9.7,0.2-16.6-4.5-22-12c-1.8-2.6-3.6-5.2-4.8-8.7
	c5.2,2.8,10.2,5.8,15.5,8.3c5,2.3,10.3,3.8,15.7,0.8c1.1-0.6,2.6-0.5,3.8-0.5c9,0,18.1-0.2,27.1,0.1c4.5,0.1,9,1.4,13.5,1.6
	c1.9,0.1,3.9-1.6,5.9-1.6c6.5,0.2,13,0.9,19.5,1.1c1.7,0.1,3.4-1.2,5.1-1.2c8.7-0.1,17.4-0.6,26,0.1c6.9,0.6,13.5,3,17.5,9.6
	c0.9,1.4,2.3,2.5,3.5,3.7c0.4-0.2,0.7-0.4,1.1-0.7c0-3-0.1-5.9,0-8.9c0.1-2.6,1.1-4.1,4.2-4c5.7,0.3,11.3,0.1,17.8,0.1
	c-0.3,1.5-0.6,2.7-1.6,3.4c-6.3-0.6-11.9-0.6-18-0.6c0,4,0,8-0.4,12c-2,0.2-3.7,0.3-5.6,0.2c-3.4-7.3-8.9-11.9-16.6-12.3
	c-9.7-0.6-19.5-0.1-29.4-0.1c-0.2,2.5-0.3,4.9-0.7,7.4c-0.2,0-0.7,0-1-0.1c-0.8-0.2-1.3-0.3-1.9-0.5c-0.6-0.2-1.1-0.3-1.5-0.9
	c0-2.2,0-4,0-6.3c-5.3,0-10.3-0.1-15.2,0.1c-0.9,0-1.8,1.7-2.9,2.6c-0.5,0.1-0.8,0.2-1.4-0.1c-4.1-0.5-7.9-0.6-12.2-0.8
	c-12-0.9-23.6-1.7-35.7-2.6c0,9.2,0,16.9-0.3,24.5c-3.2-3.1-6.4-2.2-9.6-1c-12.3,4.5-24.9,7.2-38,5.9c-5.3-0.5-10,2-12.6,7.1
	c6.3,0,12.4-0.1,18.5,0.1c1.2,0,4.3-1.8,3.1,2.2c-0.3,0.5-0.4,0.9-0.6,1.3c0.3,0,0.5-0.1,1.2-0.1c3.5-0.5,6.5-1,9.7-1.5
	c0.3-0.1,0.5-0.3,0.5-0.3c-0.2-0.2-0.4-0.4-0.4-0.9c8.4,1.2,16.6,2.7,24.8,4.2c1,0.2,2.1,0.2,3.2,0.7c0.5,7.2,0.8,14,1.2,21.1
	c5.7,0,11.4,0,17.7,0c0-6.3,0-12.4,0.3-18.5c0.4,0,0.6-0.1,1.2-0.1c3.7,0,7,0.1,10.4,0.5c-2.5,1.7-5,3-7.6,4.3c0,4.3,0,9,0,13.7
	c16.8,1.4,25.8-7.5,23.3-22.4c1,0.4,1.7,0.6,2.6,0.8c0.6,0.1,0.9,0.2,1.3,0.7c0.1,7.2,0.1,13.9,0.1,20.7c6.3,0,11.8,0,17.8,0
	c0-6.7,0-13,0.3-19.3c0.7-0.1,1.1-0.2,1.8-0.2c0.7,0.1,1.1,0.1,1.8,0.1c0.5,0,0.6,0,0.9,0.5c0.1,6.7,0.1,12.9,0.1,19.3
	c5.1,0,9.4,0.3,13.6-0.1c1.9-0.2,3.6-1.9,5.4-2.9c1.7,3.4,0.9,5.5-3.2,5.2c-6.2-0.4-12.5-1.7-18.7-1.5c-6.9,0.2-13.8,1.5-21.1,2.4
	c0-5.8,0-10.6,0-15.3c-2.4,5.3-5.5,9.8-11.1,11.9c-5.4,2-10.6,2.8-16.5,2c-5.9-0.8-12.1,0.2-18.1,0.6c-3.6,0.3-4.7-1.2-4.5-4.6
	c0.2-5.6,0.1-11.3,0.1-17.8c-7.3-1.2-14.6-3.1-21.9-3.4c-5.3-0.2-10.7,1.8-16.1,2.7c-1.1,0.2-2.3,0-3.5,0c0.3-1.3,0.5-2.5,0.8-4
	c-6.6,0-13.5,0-20.9,0C5.4,148,5.4,146.6,5.4,144.8 M51.6,110.9c-2.4-1.3-4.8-2.5-8.3-4.3c6.8,10.6,14.9,14.4,24.8,12.2
	c0-1.6,0-3.1,0-4.3C62.6,113.4,57.4,112.4,51.6,110.9z"/>
<path class="st0" d="M265,94.4c3.3,7.1,6.1,14.1,13.7,18.1c2.4,1.3,3.2,5.4,4.8,8.1c0.7,1.1,1.7,2,2.6,3c3.7,3.8,3.3,8.9-1.3,11.9
	c-1.2,0.7-3.2,0.1-4.8,0.1c0.6,5.9-1.9,7.9-7.8,6.9c-5.3-0.9-10.8-1.5-16.2-1.9c-1.8-0.1-3.7,0.7-6.1,1.1c2.2,3.6,4.1,6.5,6,9.5
	c2.6-0.2,5.1-0.7,7.7-0.7c10.8,0.2,21.5,0.5,32.3,0.7c2.3,0.1,4.6,0.2,7.2,0.2c0.4,2,0.4,4.1,0.4,6.6c-6.8,4.5-14.2,2.4-21.5,2.9
	c5.2,2.3,10.9,0.9,17.2,1.8c-4.3,4.6-6.9,9.7-14.1,8.8c-4-0.5-8.1,0.9-12.2,0.7c-4-0.2-7.9-1.6-11.9-1.8c-5.3-0.3-10.6,0.1-15.9-0.1
	c-5.4-0.2-10.8-0.4-16-1.3c-2.1-0.4-4-2.7-6.6-4.6c0,2.9,0.3,5.6-0.1,8.2c-0.2,1.3-1.7,3.4-2.8,3.5c-6,0.5-11.8,0.1-17.3-3.3
	c-2.6-1.6-6.2-1.4-10.2-2.2c2.1,4.5,1,6-2.9,5.7c-3.1-0.2-6.3-0.2-9.5,0c-5.2,0.4-9.6,0.2-11.4-6.2c-0.5-1.6-3.8-2.5-6.2-3.9
	c-0.3,1.3-0.4,2.2-1.5,2.8c-0.9-1.8-0.9-3.3-0.6-4.9c2,0.4,3.6,1.2,5.3,1.4c0.7,0.1,1.5-1,2.6-1.4c1.4,2.6,2.4,5.1,3.8,7.3
	c0.6,1.1,2,2.3,3.1,2.4c5.2,0.2,10.5,0.1,16,0.1c-0.5-2-0.8-3.3-0.7-4.7c3.1-0.4,5.9-0.8,8.9-1.1c6.2,5.1,12.9,6.8,20.9,5.6
	c0-4.2,0-8.3,0.2-12.2c0.7,0.2,1.2,0.1,2,0.2c2.7,1.6,5.3,4.8,7.2,4.4c6.4-1.4,12.3,0.9,18.4,1c2.2,0,4.5-0.5,6.9-0.6
	c0.8,0.4,1.4,0.5,2.4,0.7c3.2,0.5,6,1.1,8.8,1.2c7.7,0.4,15.4,0.7,23.1,0.7c1.3,0,2.5-1.8,4-2.9c0.5-0.6,0.7-1.1,1-1.6
	c-0.7,0-1.5,0-2.7-0.1c-5.6-0.5-10.7-0.8-15.7-1.3c-0.6-0.1-1.1-1.5-1.3-2.5c1.4-0.9,2.4-1.7,3.7-2.6c0.8-0.5,1.3-0.9,2.1-1.1
	c0.8,0.1,1.2,0.1,1.9,0.1c0.4,0.1,0.6,0.1,1.2,0.1c4.2,0.5,8,1.4,11.8,1.1c2.6-0.2,5.2-2.1,7.7-3.3c-0.2-0.8-0.4-1.6-0.7-2.3
	c-7.8,0-15.7,0-23.6,0c0,0-0.1,0-0.5-0.2c-6.5,0.1-12.7,0.4-18.8,0.6c-1.5,0-3.8-0.1-4.5-1c-2.6-3.4-4.6-7.1-6.8-10.8
	c0,0,0.1-0.1,0.4-0.3c2-1,3.6-2.6,5.3-2.6c6.8,0.2,13.6,0.9,20.4,1.3c1.3,0.1,2.7-0.5,4-0.8c-0.5-1.2-0.9-2.3-1.4-3.5
	c-0.3-0.7-0.7-1.3-1.1-2c10.1-0.9,10.1-0.9,12.2-5.9c-7.3-6-10-16.1-18.7-21.1c-1.3-0.7-1.6-3.4-2-5.3c-0.6-3.1-1.7-3.3-4.4-2
	c-3.5,1.7-7.4,3.8-11,3.7c-7.5-0.3-12.7,3.3-17.2,8.3c-2.8,3.2-6,4.2-10.1,4.1c-3.4-0.1-6.8,0.7-10.5,1.1c-0.7-0.1-1.1-0.2-1.5-0.6
	c-0.1-1.1-0.2-1.9-0.3-2.6c2.4-0.3,5.2-1.5,7.2-0.8c7.1,2.6,12-0.2,16.5-5.3c3.3-3.8,7.1-5.9,12.6-6.2c3.6-0.2,6.9-3.9,10-6.3
	C259.8,94.4,262.2,94.4,265,94.4 M279.7,160.4c-0.1,0.5-0.2,0.9-0.3,1.4c0.7-0.5,1.4-1,2-1.9C281.1,160,280.7,160.2,279.7,160.4z"/>
<path class="st1" d="M189.6,169.5c0.3,1.4,0.7,2.7,1.2,4.7c-5.6,0-10.8,0.1-16-0.1c-1.1-0.1-2.5-1.3-3.1-2.4
	c-1.4-2.3-2.3-4.8-3.7-7.7c-1.7-3.2-3.1-6-4.4-9.2c0.5-6.1,0.8-11.8,1.6-17.4c2.1-1.1,4.7-1.8,5.4-3.4c1.1-2.4-0.2-4.6-3.2-5.6
	c-0.2-0.1-0.7-0.2-0.8-0.5c-0.7-0.3-1.3-0.4-2.3-0.5c-1.8,0.6-3.1,1.3-4.6,2.4c0,4.2,0.1,7.9,0.1,12c0,1.1,0.1,1.8,0,2.9
	c-0.1,0.8-0.1,1.2-0.1,2.1c0,6.2,0.1,11.9,0.1,17.6c0,1.5,0.1,3,0.6,5.2c0.5,0.9,0.5,1.2,0.5,1.5c-1.8,1-3.5,2.7-5.4,2.9
	c-4.2,0.4-8.6,0.1-13.6,0.1c0-6.4,0-12.7,0-19.8c-0.1-12.3-0.2-23.6-0.2-35c0.2-2.5,0.3-4.9,0.5-7.4c9.9,0,19.7-0.4,29.4,0.1
	c7.7,0.4,13.2,5,16.6,12.7c0.7,3.7,1.2,6.7,1.5,9.7c0.1,1.6-0.4,3.2-0.8,5c-0.5,0.8-0.8,1.3-1.2,2.1c-0.9,1-1.5,1.9-2.3,2.4
	c-3.2,2-4.4,4.5-2.8,8.2C184.8,158,187.2,163.7,189.6,169.5z"/>
<path class="st2" d="M219.8,161.6c0,4.1,0,8.2,0,12.4c-8,1.1-14.7-0.5-21-6c-2.7-4.7-4.5-8.9-4.4-14c0.2-9.9-0.2-19.9-0.4-29.8
	c0-4,0-7.9,0-12c6.1,0,11.7,0,17.4,0.5c0.1,0.5,0.1,0.6,0.1,0.6c0.1,0.8,0.2,1.5,0.2,3.1c0,12.2,0.1,23.6,0.1,35.3
	c0.6,0.8,1.2,1.2,1.7,2.1c0,0.8,0.1,1.3,0.1,2.1c1.9,0.8,3.9,1.2,5.8,2c0.1,0.8,0.2,1.2,0.2,2C219.6,160.6,219.7,161.1,219.8,161.6z
	"/>
<path class="st1" d="M69.4,135.4c0-7.8,0-15.5,0-24.7c12.1,0.9,23.7,1.8,35.7,3c8.5,4.4,11.2,18,0.2,27.4c5.8,1.1,7.4,5.9,9.5,10.3
	c2.9,15-6.1,23.9-23,22.5c0-4.7,0-9.4,0-13.7c2.6-1.3,5.1-2.6,7.8-4.6c-1-1.8-2.1-2.9-3.7-4.1c-1.7-0.1-2.9-0.1-4.4-0.1
	c0-4.8-0.1-9.1,0.1-13.4c0-0.9,1.2-1.8,2.1-2.8c1-2.1,1.7-4.2,2.4-6.3c-1.9-0.2-3.8-0.5-5.7-0.6c-0.6-0.1-1.3,0.1-2.4,0.3
	c-0.4,9-0.4,17.9-0.4,26.7c0,6.1,0,12.2,0,18.5c-6.3,0-11.9,0-17.7,0c-0.4-7.1-0.7-13.9-0.8-21.3C69.4,146.4,69.4,140.9,69.4,135.4z
	"/>
<path class="st3" d="M118.9,114.2c0.9-0.9,1.7-2.5,2.6-2.6c4.9-0.3,9.8-0.1,15.2-0.1c0,2.3,0,4.1-0.1,6.8c0,5.7,0.1,10.4,0.1,15.5
	c0,1.1,0,1.8-0.1,2.9c0,6.2,0.1,12,0.1,17.7c0,6.3,0,12.6,0,19.3c-6,0-11.5,0-17.8,0c0-6.8,0-13.6,0.1-21.2
	C119.1,139.2,119,126.7,118.9,114.2z"/>
<path class="st4" d="M69,135.2c0.3,5.7,0.3,11.2-0.1,17c-1.4,0.1-2.5,0.1-3.5-0.1c-8.2-1.5-16.4-3-24.8-3.9c-0.2,0.6-0.3,1-0.3,1
	c-3,0.5-6,1-9.5,1.2c-0.4-0.5-0.4-0.7-0.4-0.9c1-3.9-2-2.1-3.3-2.1c-6.1-0.2-12.2-0.1-18.5-0.1c2.6-5.2,7.4-7.7,12.6-7.1
	c13.2,1.3,25.8-1.4,38-5.9C62.7,133,65.8,132.1,69,135.2 M34.1,147.9c0.2,0.1,0.4,0.1,0.6,0.2C34.6,147.9,34.4,147.8,34.1,147.9z"/>
<path class="st5" d="M193.5,124.2c0.6,9.9,1,19.8,0.8,29.8c-0.1,5.1,1.7,9.4,4.1,14c-2.6,0.7-5.3,1.1-8.5,1.5
	c-2.8-5.7-5.1-11.5-7.6-17.2c-1.6-3.7-0.4-6.2,2.8-8.2c0.8-0.5,1.4-1.4,2.6-2.4c1.1-0.6,1.8-0.9,2.4-1.2c-0.4-0.4-0.8-0.7-1.3-1.1
	c0.2-1.6,0.7-3.2,0.6-4.7c-0.2-3.1-0.8-6.1-1.2-9.5C189.8,124.6,191.5,124.4,193.5,124.2z"/>
<path class="st6" d="M115.1,151.5c-2.4-4.5-4-9.3-9.8-10.4c11-9.4,8.4-23,0.2-27.4c3.8-0.2,7.6,0,11.7,0.9c0.2,13,0.2,25.4,0.2,37.7
	C116.8,152.1,116.1,151.9,115.1,151.5z"/>
<path class="st7" d="M51.9,111.1c5.5,1.2,10.6,2.3,16.2,3.4c0,1.1,0,2.7,0,4.3c-9.8,2.2-18-1.6-24.8-12.2
	C46.8,108.4,49.2,109.7,51.9,111.1z"/>
<path class="st8" d="M117.7,152.3c-0.2-12.3-0.2-24.7-0.2-37.4c0.3-0.5,0.7-0.5,1.2-0.7c0.3,12.5,0.5,25,0.4,37.9
	C118.6,152.5,118.3,152.4,117.7,152.3z"/>
<path class="st9" d="M96.4,151.5c1.1,1.1,2.3,2.2,3.2,3.6c-3.5,0.3-6.8,0.3-10.6-0.2c-0.5-7.1-0.5-13.8-0.1-20.4
	c0.7,0,1.2,0,1.6,0.5c0,6,0,11.5,0,17.9C92.9,152.3,94.6,151.9,96.4,151.5z"/>
<path class="st10" d="M136.7,136.3c0-0.7-0.1-1.4,0.3-2.5c0.8-0.4,1.2-0.5,1.9-0.7c0.8-4.7,1.2-9.2,1.6-13.7c0,0,0.5,0,0.7,0
	c0.3,11.4,0.4,22.7,0.4,34.6c-0.3,0.5-0.5,0.4-0.9,0c-0.2-6.6-0.2-12.7-0.2-19.9c-1.3,1.4-1.8,1.9-2.4,2.3
	C137.4,136.3,137.1,136.3,136.7,136.3z"/>
<path class="st11" d="M138.2,136.3c0.4-0.5,0.9-0.9,2.2-2.3c0,7.2,0,13.3,0,19.9c-0.4,0.5-0.8,0.4-1.6-0.1
	C138.4,147.7,138.3,142,138.2,136.3z"/>
<path class="st12" d="M138,136.3c0.3,5.7,0.4,11.3,0.5,17.4c-0.4,0.5-0.7,0.6-1.4,0.7c-0.4-5.7-0.5-11.5-0.4-17.7
	C137.1,136.3,137.4,136.3,138,136.3z"/>
<path class="st12" d="M138.6,133.2c-0.4,0.1-0.8,0.1-1.5,0.2c-0.4-4.7-0.4-9.5-0.4-14.7c0.6-0.4,1-0.3,1.6,0.5
	C138.5,124.3,138.5,128.8,138.6,133.2z"/>
<path class="st13" d="M88.6,134.4c0,6.7,0,13.3,0,20.4c-0.1,0.5-0.3,0.5-0.7,0.5c-0.3-8.9-0.3-17.7,0.1-26.3
	C88.5,131.1,88.5,132.7,88.6,134.4z"/>
<path class="st4" d="M138.9,133.1c-0.4-4.3-0.4-8.7-0.5-13.7c0.5-0.4,0.9-0.3,1.7-0.1C140.1,123.9,139.7,128.4,138.9,133.1z"/>
<path class="st14" d="M30.3,149.6c0.2,0.1,0.2,0.3,0.2,0.8c-0.3,0.4-0.5,0.4-0.8,0.4C29.8,150.5,30,150.1,30.3,149.6z"/>
<path class="st14" d="M40.6,149.2c-0.2,0-0.2-0.5-0.2-0.7c0.2,0,0.5,0.1,0.7,0.3C41.1,148.9,41,149.1,40.6,149.2z"/>
<path class="st15" d="M213.5,155.4c0-0.5-0.1-0.9-0.1-2.1c0-1.2-0.1-1.7-0.1-2.6c0.2-2.2,0.3-4,0.4-6.3c2.1,0,3.9,0,5.7,0.3
	c0.3,1,0.6,1.6,0.9,2.3c0.3-0.1,0.5-0.2,0.8-0.3c-0.2-0.8-0.5-1.6-0.7-2.7c0-1.5-0.1-2.6-0.1-3.4c-2.1,0.7-4,1.4-6.7,2.4
	c0-9.6,0-18,0-26.4c3.4-0.4,6.8-1.2,10.2-1.1c4.1,0.1,7.3-1,10.1-4.1c4.5-5.1,9.6-8.6,17.2-8.3c3.6,0.1,7.5-2,11-3.7
	c2.8-1.3,3.9-1.1,4.4,2c0.3,1.9,0.7,4.5,2,5.3c8.8,5,11.4,15.2,18.7,21.1c-2.2,5-2.2,5-12.2,5.9c0.4,0.8,0.9,1.4,1.1,2
	c0.5,1.1,0.9,2.3,1.4,3.5c-1.3,0.3-2.7,0.8-4,0.8c-6.8-0.4-13.6-1.1-20.4-1.3c-1.6,0-3.3,1.5-5.3,2.3c-0.4-0.4-0.6-0.7-0.7-1
	c-0.2,0.2-0.5,0.5-0.5,0.5c0.2,0.4,0.5,0.7,0.8,1c2.2,3.6,4.3,7.4,6.9,10.8c0.7,1,3,1.1,4.5,1c6.1-0.1,12.3-0.5,18.6-0.3
	c-0.2,1.8-0.5,3.1-1.1,4.7c-1,0.4-1.9,0.6-2.8,0.6c-0.4,0-0.6,0.1-0.8,0.2c0.3,0.3,0.5,0.7,0.9,1.4c0.1,0.6,0.1,0.9,0.2,1.1
	c0.5,0.8,1,2.3,1.7,2.4c5.1,0.6,10.2,0.9,15.9,1.6c0.8,0.7,1.1,1.2,1.3,1.7c-1.3,1-2.5,2.8-3.8,2.8c-7.7,0-15.4-0.3-23.1-0.7
	c-2.8-0.1-5.6-0.7-8.6-1.4c0.4-0.6,1-1,1.6-1.3c-0.2-0.4-0.4-0.8-0.6-1.2c-1.2,0.6-2.5,1.2-3.7,1.8c-2.3,0.3-4.5,0.9-6.8,0.8
	c-6.1-0.1-12-2.4-18.4-1c-1.9,0.4-4.6-2.7-7.3-4.7c-0.4-1-0.5-1.6-0.5-2.6c0-0.8,0-1.2-0.1-2C218.7,156.2,216.1,155.8,213.5,155.4
	 M230.2,153.5c0.1,0,0.2,0,0.6-0.2C230.6,153.3,230.5,153.4,230.2,153.5 M251.7,162.8c0.3,0,0.7,0,1-0.1c-0.4-0.1-0.8-0.3-1.1-0.9
	c0-0.4-0.1-0.8-0.1-1.2c-0.5,0.3-0.9,0.6-1.4,0.9C250.6,161.9,251,162.2,251.7,162.8 M264.8,163.4c-0.6,0.4-1.1,0.9-1.7,1.3
	c0.3,0.2,0.6,0.5,0.8,0.7c0.5-0.7,1-1.4,1.8-2.2C265.6,163.3,265.5,163.4,264.8,163.4 M240.5,148.1c0.7,0.5,1.3,0.9,2.5,1.7
	c1.2,1.1,2.3,2.3,3.7,3.6c2.3-5.6-3.2-3.9-4.6-6.5c-0.6-0.2-1.1-0.3-2-0.3c-0.1,0.1-0.2,0.3-0.2,0.3
	C240.1,147.1,240.3,147.2,240.5,148.1 M242.4,159.8c-0.3-0.3-0.6-0.6-0.9-1c-0.2,0.2-0.4,0.4-0.5,0.6c0.5,0.3,1,0.6,1.9,1.4
	c1.2,0.5,2.4,1,3.7,1.5c0.1-0.7,0.2-1.4,0.3-2.1C245.4,160.4,243.9,160.4,242.4,159.8 M240.7,154c0.7-0.1,1.4-0.2,2.1-0.2
	c-0.5-0.6-1-1.2-1.6-1.7C240.9,152.5,240.6,153.1,240.7,154 M266.3,157.8c0.2,0.7,0.4,1.5,0.6,2.2c0.4-0.1,0.8-0.3,1.2-0.4
	C267.7,159,267.3,158.4,266.3,157.8 M239.3,143.4c-0.5,0.1-1,0.2-1.4,0.3c0.5,0.5,1.1,0.9,1.6,1.4
	C239.5,144.6,239.6,144.1,239.3,143.4 M232.8,162.1c0.3,0.5,0.6,1,0.8,1.5c0.2-0.2,0.6-0.5,0.6-0.6
	C234,162.7,233.6,162.2,232.8,162.1 M252,157.6c-0.4-0.4-0.8-0.7-1.3-1c0,0-0.4,0.4-0.6,0.6C250.7,157.5,251.2,157.8,252,157.6
	 M229.6,159.8c-0.3-0.1-0.7-0.1-1-0.2c0.1,0.5,0.3,0.9,0.4,1.4C229.2,160.7,229.5,160.5,229.6,159.8 M227,159.6c0-0.6,0-1.2-0.1-1.7
	c-0.3,0.1-0.6,0.1-0.9,0.2C226.2,158.5,226.4,159,227,159.6 M221,137.7c-0.3-0.3-0.5-0.6-0.8-0.8c-0.1,0.1-0.3,0.3-0.3,0.3
	C220.1,137.5,220.4,137.8,221,137.7 M236.1,137.8c0.4-0.1,0.7-0.2,1.1-0.3C236.8,137.5,236.5,137.5,236.1,137.8 M232.2,133.4
	c0.3,0.2,0.5,0.3,0.8,0.5C232.8,133.6,232.6,133.4,232.2,133.4 M237.9,157.8c-0.1-0.4-0.2-0.7-0.3-1.1
	C237.5,157.1,237.5,157.4,237.9,157.8 M224.4,133.1c-0.2,0.3-0.3,0.5-0.5,0.8C224.2,133.8,224.5,133.6,224.4,133.1 M270.8,156.9
	c-0.2-0.1-0.4-0.1-0.6-0.2C270.3,156.9,270.5,157,270.8,156.9 M227.9,152.8c0.1-0.2,0.1-0.4,0.2-0.6
	C228,152.3,227.8,152.4,227.9,152.8 M235.9,146.8c0.1-0.2,0.1-0.4,0.2-0.6C236,146.3,235.8,146.4,235.9,146.8 M232.9,150.9
	C232.9,150.9,233,150.8,232.9,150.9 M225.9,149.9C225.9,149.9,226,149.8,225.9,149.9 M230.9,149.9
	C230.9,149.9,231,149.8,230.9,149.9z"/>
<path class="st15" d="M281.4,157.2c-0.4,0-0.9,0-1.7-0.4c-0.8-1.6-1.2-2.8-1.6-3.9c7.8,0,15.7,0,23.5,0c0.2,0.8,0.4,1.6,0.7,2.3
	c-2.6,1.2-5.1,3.1-7.7,3.3c-3.7,0.3-7.6-0.6-11.8-1.3c-0.6-0.6-0.7-0.8-0.8-1.1C281.8,156.5,281.6,156.8,281.4,157.2z"/>
<path class="st16" d="M213.2,116.5c0.3,8.5,0.3,16.9,0.3,26.4c2.7-1,4.7-1.7,6.7-2.4c0,0.8,0.1,1.9-0.1,3.5
	c-0.2,0.4-0.7,0.4-0.7,0.4c-1.8,0-3.6,0-5.7,0c-0.2,2.3-0.3,4.1-0.7,6.3c-0.6,0.5-1,0.5-1.3,0.6c-0.1-11.4-0.2-22.7-0.1-34.6
	C212.2,116.4,212.6,116.4,213.2,116.5z"/>
<path class="st14" d="M160,164.4c-0.5-5.6-0.5-11.3-0.2-17.5c0.8-0.4,1.2-0.4,1.8-0.1c0.7,3.1,1.2,5.8,1.7,8.5
	c1.4,2.7,2.8,5.5,4.2,8.6c-0.8,0.9-1.6,2-2.3,1.9C163.6,165.6,162,164.8,160,164.4z"/>
<path class="st17" d="M278.1,152.9c0.4,1.2,0.8,2.3,1.3,3.8c-0.4,0.7-0.9,1-1.8,1.3c-0.6-0.3-0.8-0.5-1.2-0.6
	c0.4-1.3,0.7-2.7,1.3-4.3C278,152.8,278.1,152.9,278.1,152.9z"/>
<path class="st18" d="M254.5,166.7c1.1-0.9,2.3-1.5,3.6-2.1c0.2,0.4,0.4,0.8,0.6,1.2c-0.6,0.3-1.2,0.7-2.1,1.2
	C255.9,167.2,255.3,167.1,254.5,166.7z"/>
<path class="st4" d="M276.2,157.7c0.5-0.2,0.8,0,1.1,0.5c-0.9,1-2,1.8-3.4,2.6c-0.4-0.1-0.4-0.4-0.5-1.3c0-0.8,0-1,0-1.2
	C274.4,158.2,275.2,158.1,276.2,157.7z"/>
<path class="st19" d="M221.5,159.4c0,0.6,0.1,1.2,0.1,2.2c-0.5,0.3-0.9,0.4-1.6,0.2c-0.3-0.7-0.4-1.1-0.1-2
	C220.6,159.4,221,159.4,221.5,159.4z"/>
<path class="st18" d="M292.8,166.4c-0.5-0.3-0.8-0.8-1.1-1.5c0.6-0.2,1.3-0.2,2.1-0.2C293.5,165.3,293.3,165.8,292.8,166.4z"/>
<path d="M281.5,160.3c-0.7,0.5-1.4,1-2.1,1.5c0.1-0.5,0.2-0.9,0.9-1.4C281.1,160.4,281.3,160.4,281.5,160.3z"/>
<path class="st17" d="M281.7,157.3c-0.1-0.5,0.1-0.8,0.3-1.2c0.1,0.3,0.3,0.5,0.4,1C282.3,157.3,282.1,157.4,281.7,157.3z"/>
<path d="M280.7,160.4c0.1-0.2,0.4-0.3,0.8-0.3C281.3,160.4,281.1,160.4,280.7,160.4z"/>
<path class="st20" d="M164.4,127.5c0.6,0.1,1.2,0.1,2,0.7c0.5,0.4,0.7,0.4,1,0.4c2.8,0.9,4.1,3.2,3,5.5c-0.8,1.6-3.3,2.3-5.8,3.4
	c-2.2,1.4-3.6,2.7-5,4.1c-0.1-3.7-0.2-7.5,0.2-11.6C161.6,128.8,163,128.1,164.4,127.5z"/>
<path class="st21" d="M159.6,141.8c1.4-1.7,2.8-3.1,4.6-4.4c0,5.7-0.3,11.3-0.8,17.4c-0.6-2.3-1.1-5-1.8-8.4
	c-0.7-1.2-1.3-1.6-1.9-2.1C159.6,143.7,159.6,142.9,159.6,141.8z"/>
<path class="st22" d="M164,127.4c-1,0.7-2.4,1.3-4.1,2C160.9,128.7,162.2,128.1,164,127.4z"/>
<path class="st4" d="M188.6,139.6c0.6,0.1,1.1,0.5,1.5,0.9c-0.6,0.3-1.2,0.6-2.2,0.9C187.8,140.9,188.1,140.3,188.6,139.6z"/>
<path class="st22" d="M159.6,144.7c0.7,0.2,1.3,0.6,1.8,1.4c-0.4,0.3-0.8,0.3-1.6,0.3C159.5,145.9,159.5,145.5,159.6,144.7z"/>
<path class="st22" d="M167.2,128.4c0,0.1-0.3,0.1-0.6,0C166.5,128.2,166.9,128.4,167.2,128.4z"/>
<path class="st19" d="M213.6,155.8c2.6,0,5.2,0.4,7.5,1.2c-0.8,0.4-1.2,0.4-1.7,0.4C217.4,157,215.5,156.6,213.6,155.8z"/>
<path class="st7" d="M219.4,157.8c0.4-0.3,0.9-0.4,1.7-0.4c0.4,0.4,0.4,0.9,0.4,1.6c-0.4,0.3-0.8,0.3-1.5,0.4
	C219.6,159,219.5,158.6,219.4,157.8z"/>
<path class="st4" d="M211.7,151.7c0.4-0.3,0.7-0.4,1.3-0.5c0.3,0.5,0.3,0.9,0.4,1.8C212.9,152.9,212.3,152.4,211.7,151.7z"/>
<path class="st23" d="M88.9,134.4c-0.4-1.7-0.4-3.4-0.5-5.5c0.6-0.5,1.3-0.7,2-0.6c1.9,0.2,3.8,0.4,5.7,0.6c-0.7,2.1-1.3,4.2-2.5,6
	c-1.4-0.4-2.2-0.5-3.1-0.6C90.1,134.4,89.6,134.4,88.9,134.4z"/>
<path class="st21" d="M90.5,134.9c0.9-0.4,1.7-0.3,2.7,0.1c-0.4,1.2-1.5,2.1-1.6,3c-0.2,4.3-0.1,8.5-0.1,13.4c1.5,0,2.8,0,4.4,0.1
	c-1.3,0.4-3.1,0.8-5.5,1.3C90.4,146.4,90.4,140.9,90.5,134.9z"/>
<path class="st14" d="M34.2,147.8c0.3,0,0.4,0.2,0.5,0.3C34.5,148,34.3,147.9,34.2,147.8z"/>
<path class="st20" d="M242.5,147.4c1.1,2.1,6.5,0.4,4.3,6.1c-1.4-1.4-2.6-2.5-4-4.2C242.4,148.3,242.4,147.8,242.5,147.4z"/>
<path class="st9" d="M242.4,160.4c1.5,0,2.9,0,4.4,0c-0.1,0.7-0.2,1.4-0.3,2.1c-1.2-0.5-2.4-1-3.9-1.8
	C242.4,160.4,242.4,160.4,242.4,160.4z"/>
<path class="st6" d="M242.3,147.2c0.2,0.7,0.2,1.1,0.2,1.9c-0.7-0.1-1.3-0.6-2-1.6c0-0.7,0-0.9,0-1.1
	C241,146.6,241.6,146.7,242.3,147.2z"/>
<path class="st20" d="M240.5,153.8c0.1-0.7,0.4-1.3,0.7-1.8c0.5,0.6,1,1.2,1.6,1.7C242.1,153.8,241.4,153.9,240.5,153.8z"/>
<path class="st17" d="M266.6,157.8c0.7,0.6,1.1,1.2,1.5,1.8c-0.4,0.1-0.8,0.3-1.2,0.4C266.7,159.3,266.5,158.5,266.6,157.8z"/>
<path class="st20" d="M239.5,143.5c0.1,0.6,0,1.1-0.1,1.5c-0.5-0.5-1.1-0.9-1.6-1.4C238.3,143.6,238.8,143.5,239.5,143.5z"/>
<path class="st7" d="M233.1,162c0.6,0.3,0.9,0.7,1.2,1.2c0,0-0.4,0.4-0.6,0.6C233.4,163.2,233.1,162.7,233.1,162z"/>
<path class="st18" d="M265.5,163.4c-0.5,0.7-1,1.4-1.5,2.1c-0.3-0.2-0.6-0.5-0.8-0.7c0.6-0.4,1.1-0.9,2-1.4
	C265.4,163.4,265.5,163.4,265.5,163.4z"/>
<path class="st9" d="M251.8,157.8c-0.7-0.1-1.2-0.4-1.7-0.7c0.2-0.2,0.5-0.6,0.6-0.6C251.2,156.9,251.6,157.3,251.8,157.8z"/>
<path class="st4" d="M219.4,144.8c0-0.3,0.5-0.4,0.7-0.4c0.5,0.8,0.7,1.6,0.9,2.4c-0.3,0.1-0.5,0.2-0.8,0.3
	C220.1,146.4,219.8,145.7,219.4,144.8z"/>
<path class="st17" d="M251.5,162.5c-0.4-0.3-0.9-0.6-1.3-0.9c0.5-0.3,0.9-0.6,1.4-0.9c0,0.4,0.1,0.8,0,1.5
	C251.5,162.4,251.5,162.5,251.5,162.5z"/>
<path class="st6" d="M242.4,160.4c-0.5-0.3-1-0.6-1.5-0.9c0.2-0.2,0.4-0.4,0.5-0.6c0.3,0.3,0.6,0.6,0.9,1.2
	C242.4,160.4,242.4,160.4,242.4,160.4z"/>
<path class="st7" d="M229.7,160c-0.2,0.5-0.4,0.7-0.7,0.9c-0.1-0.5-0.3-0.9-0.4-1.4C228.9,159.7,229.2,159.7,229.7,160z"/>
<path class="st7" d="M226.8,159.5c-0.4-0.6-0.5-1-0.7-1.5c0.3-0.1,0.6-0.1,0.9-0.2C227,158.5,227,159.1,226.8,159.5z"/>
<path class="st24" d="M220.8,137.9c-0.4-0.1-0.7-0.4-1-0.7c0,0,0.2-0.2,0.3-0.3C220.5,137.1,220.7,137.4,220.8,137.9z"/>
<path class="st24" d="M236.1,137.6c0.4-0.2,0.7-0.1,1-0.1C236.8,137.6,236.4,137.7,236.1,137.6z"/>
<path class="st24" d="M232.3,133.3c0.3,0.1,0.5,0.4,0.6,0.6C232.7,133.7,232.4,133.6,232.3,133.3z"/>
<path class="st6" d="M237.6,157.7c-0.2-0.4-0.1-0.7-0.1-1C237.7,157.1,237.8,157.4,237.6,157.7z"/>
<path class="st24" d="M224.6,133.3c-0.1,0.3-0.4,0.5-0.6,0.6C224.1,133.7,224.3,133.4,224.6,133.3z"/>
<path class="st17" d="M270.7,157.1c-0.3,0-0.4-0.2-0.5-0.3C270.4,156.8,270.6,156.9,270.7,157.1z"/>
<path class="st0" d="M247.4,141.4c-0.3-0.3-0.6-0.6-0.8-1c0,0,0.3-0.3,0.5-0.5c0.1,0.3,0.3,0.6,0.4,1.2
	C247.5,141.4,247.4,141.4,247.4,141.4z"/>
<path class="st6" d="M227.8,152.7c0-0.2,0.1-0.4,0.3-0.5C228,152.4,228,152.6,227.8,152.7z"/>
<path class="st17" d="M273.4,158.2c0.1,0.3,0.1,0.5,0.1,0.9c-0.3-0.1-0.6-0.4-0.8-0.7C272.8,158.3,273,158.2,273.4,158.2z"/>
<path class="st20" d="M235.8,146.7c0-0.2,0.1-0.4,0.3-0.5C236,146.4,236,146.6,235.8,146.7z"/>
<path class="st4" d="M251.5,162.4c0.4,0.1,0.8,0.3,1.3,0.4c-0.3,0-0.7,0-1.2-0.1C251.5,162.5,251.5,162.4,251.5,162.4z"/>
<path class="st20" d="M240.3,146.5c0.2,0.1,0.2,0.2,0.2,0.7c-0.2,0.1-0.4-0.1-0.5-0.3C239.9,146.9,240.1,146.7,240.3,146.5z"/>
<path class="st18" d="M265.4,163.4c0.1,0,0.2-0.1,0.2,0C265.5,163.4,265.4,163.4,265.4,163.4z"/>
<path class="st6" d="M232.9,150.9C233,150.8,232.9,150.9,232.9,150.9z"/>
<path class="st4" d="M225.9,149.9C226,149.8,225.9,149.9,225.9,149.9z"/>
<path class="st6" d="M230.9,149.9C231,149.8,230.9,149.9,230.9,149.9z"/>
<path class="st6" d="M230.5,153.4c-0.1,0-0.2,0-0.2,0C230.4,153.4,230.5,153.4,230.5,153.4z"/>
<path class="st6" d="M230.4,153.4c0.1,0,0.2-0.1,0.2,0C230.5,153.4,230.4,153.4,230.4,153.4z"/>
</svg>
