<?xml version="1.0" encoding="utf-8"?>
<!-- Generator: Adobe Illustrator 23.0.1, SVG Export Plug-In . SVG Version: 6.00 Build 0)  -->
<svg version="1.1" id="Layer_1" xmlns="http://www.w3.org/2000/svg" xmlns:xlink="http://www.w3.org/1999/xlink" x="0px" y="0px"
	 viewBox="0 0 595.3 841.9" style="enable-background:new 0 0 595.3 841.9;" xml:space="preserve">
<style type="text/css">
	.st0{fill:#FFFFFF;stroke:#FFFFFF;stroke-miterlimit:10;}
	.st1{fill:#D70907;}
	.st2{fill:#FEFEFE;}
</style>
<rect x="387.3" y="227.4" class="st0" width="101.9" height="120"/>
<path class="st1" d="M417,227.9c-3.4,3.9-7,7.2-9.7,11.1c-3.9,5.7-3.1,11.7,0.7,17.3c3.6,5.4,9,7.4,15.2,6
	c5.3-1.2,10.5-3.1,15.8-4.7c3.1-0.9,6.8-2.2,7.7,2.4c0.8,4.2-2.6,6.7-5.9,6.4c-9.3-1-14.3,6.4-21.6,9.3c3.5,5.8,8.5,7.9,16.5,6.1
	c10.9-2.5,20-8.2,26.4-17.5c4.1-6.1,4.2-12.5,0.2-18.8c-3.7-5.8-9.4-7.9-17.1-6c-5.7,1.3-11.1,3.4-16.8,4.7
	c-1.7,0.4-3.7-0.8-5.6-1.2c1.2-1.9,2.3-3.9,3.6-5.8c0.3-0.4,1.3-0.6,1.9-0.5c7.3,1.5,11.4-4.6,17-7.1c2.5-1.1,5.2-2.2,7.9-2.2
	c15-0.2,30-0.1,45.3-0.1c0,58.3,0,116.1,0,174.6c-1.8,0-3.7,0-5.6,0c-71,0.1-142,0.1-212.9,0.3c-33.1,0.1-59.1,21.5-65.4,53.4
	c-6.8,34.5,17.3,69.4,52.1,75.4c4.9,0.8,9.9,1.1,14.9,1.1c70.3,0.1,140.7,0,211,0c1.8,0,3.6,0,5.9,0c0,57.9,0,115.6,0,174
	c-10.7,0-21.4,0-32.2,0c-69.8,0.2-139.6,1.9-209.4,0.4c-83.6-1.8-149.8-38.3-196.8-107.7c-30-44.2-43-93.7-39-146.8
	c5.9-82.6,44.9-146.2,115-189.9c37.9-23.6,79.8-34.5,124.5-34.4c51.5,0.1,103,0.1,154.4,0.1C415.7,227.8,416.3,227.9,417,227.9z
	 M194.3,432.3c-5.1-8.3-10-16-14.7-23.8c-3.7-6.1-3.5-10.3,0.4-12.9s7.3-1.2,11.4,5.3c5,7.8,9.8,15.8,14.9,23.9
	c5.8-3.6,11.4-7.1,17.3-10.7c-4.8-7.8-9.5-15.2-14-22.8c-1.4-2.4-3-5.2-2.9-7.7c0.1-2.3,1.9-5.5,3.9-6.5c1.7-0.8,5.3,0.1,6.9,1.6
	c2.6,2.4,4.3,5.8,6.3,8.9c4,6.3,7.9,12.6,11.9,19c6.1-3.8,11.7-7.3,17.2-10.8c-3.5-5.7-6.7-11-10-16.2c-3.6-5.6-6.9-11.4-10.9-16.7
	c-7.2-9.2-15.6-10.2-25.4-3.9c-6.2,4-9,9.9-9.7,17.1c-12.6-5.5-23.9,0-28.7,13.6c-1.2-0.9-2.4-1.7-3.9-2.8
	c-5.3,3.3-10.5,6.6-15.8,10c9.7,15.6,19.1,30.7,28.5,45.9C182.8,439.4,188.3,436,194.3,432.3z M336.4,344.3
	c-7.4-11.4-14.2-22.8-22-33.5c-6-8.2-13.6-8.9-22.6-4.2c-7.3,3.8-11,9.9-11.5,18c-14.2-4.5-22.8-0.5-28.7,12.7
	c-2.2-0.2-4.4-1.1-5.8-0.4c-4.8,2.5-9.2,5.6-14,8.6c9.6,15.5,18.9,30.6,28.3,45.9c6-3.7,11.6-7.2,17.3-10.8
	c-4.5-7.3-8.9-14.2-13-21.2c-1.6-2.7-3-5.6-4-8.5c-1.1-3.3,0.4-6.4,3.5-7.3c2.2-0.6,5.5,0.2,7.4,1.6c2.3,1.7,3.6,4.7,5.2,7.2
	c4.3,6.8,8.5,13.7,12.9,20.7c6-3.8,11.6-7.3,17.3-10.8c-4.9-7.9-9.6-15.4-14.1-22.9c-1.3-2.2-3-4.9-2.9-7.3s1.8-5.6,3.7-6.7
	c1.6-0.9,5,0.1,7,1.3c1.8,1.1,2.9,3.5,4.1,5.5c4.8,7.5,9.4,15.1,14.2,22.8C324.9,351.4,330.4,348,336.4,344.3z M72.7,413.8
	c-8.4,5.3-16.7,10.1-24.7,15.5c-15.9,11-21.2,32.6-12.6,49.8c9,18,29.5,27.3,47.9,20.1c11-4.3,20.9-11.3,31.6-17.3
	c-4.1-6.6-7.7-12.3-11.2-18c-7.1,4.3-13.7,8.6-20.5,12.3c-8.9,4.9-19,2.3-24.6-6c-5.7-8.4-3.9-19.8,4.5-25.7
	c6.6-4.6,13.6-8.8,20.5-13.2C79.9,425.4,76.4,419.8,72.7,413.8z M93.1,431.3c2.1,3.4,3.7,6.3,5.5,9.1c5.4,8.4,10.4,17.1,16.5,24.9
	c6.3,8.1,15.7,9.1,23.9,2.7c4.2-3.3,7.4-7.9,11.3-12.2c0.3,0.2,1.7,1.1,2.9,1.9c5.4-3.4,10.4-6.5,15.8-9.9
	c-9.6-15.5-19-30.7-28.5-46.1c-6,3.8-11.6,7.2-17.3,10.8c4.1,6.7,8.1,12.8,11.8,19.1c1.9,3.1,3.6,6.4,5,9.7c1.5,3.8,0,6.8-3.5,8.8
	c-3.4,1.9-6.1,0.8-8.4-1.9c-1.4-1.6-2.6-3.5-3.7-5.3c-4.7-7.4-9.3-14.9-14-22.5C104.5,424.3,99,427.7,93.1,431.3z M362.9,268.7
	c-1.4-0.4-3.7-2-4.9-1.4c-5.1,2.6-9.8,5.9-14.8,9c9.6,15.6,19,30.7,28.4,45.9c6.1-3.8,11.6-7.2,17.3-10.7c-2.9-4.6-5.5-8.7-8-12.8
	c-2.9-4.8-6-9.6-8.6-14.6c-2-3.8-0.8-7.1,2.9-9.4c3.6-2.3,6.7-1.3,9.2,1.8c1.8,2.2,3.3,4.6,4.8,7c4.2,6.7,8.4,13.4,12.7,20.2
	c6.1-3.8,11.5-7.2,17.3-10.8c-5.9-9.5-11.6-18.7-17.3-27.8c-1-1.5-2.1-3-3.2-4.4c-8.2-9.8-18.8-10.8-28.3-2.3
	C367.2,261,365.4,265.1,362.9,268.7z M316.6,292.8c9.6,15.5,19,30.7,28.5,46c6-3.7,11.4-7.1,17.2-10.8
	c-9.6-15.5-18.9-30.6-28.3-45.9C328,285.8,322.6,289.2,316.6,292.8z M330.3,276.1c-2.8-4.5-5.4-8.6-8.1-12.9
	c-6,3.8-11.6,7.3-17.2,10.8c2.9,4.6,5.4,8.6,8,12.9C318.7,283.3,324.2,279.9,330.3,276.1z"/>
<path class="st2" d="M194.3,432.3c-6,3.7-11.5,7.1-17.3,10.7c-9.4-15.2-18.8-30.3-28.5-45.9c5.3-3.3,10.5-6.7,15.8-10
	c1.4,1,2.6,1.9,3.9,2.8c4.8-13.6,16.1-19.1,28.7-13.6c0.7-7.2,3.6-13.1,9.7-17.1c9.8-6.4,18.2-5.4,25.4,3.9
	c4.1,5.2,7.4,11,10.9,16.7c3.3,5.2,6.5,10.5,10,16.2c-5.6,3.5-11.1,7-17.2,10.8c-4-6.4-7.9-12.7-11.9-19c-2-3.1-3.7-6.5-6.3-8.9
	c-1.6-1.5-5.2-2.4-6.9-1.6c-2,1-3.8,4.2-3.9,6.5c-0.1,2.5,1.5,5.3,2.9,7.7c4.5,7.6,9.2,15,14,22.8c-5.9,3.6-11.5,7.1-17.3,10.7
	c-5.1-8.2-9.9-16.1-14.9-23.9c-4.2-6.5-7.5-8-11.4-5.3c-3.8,2.5-4,6.8-0.4,12.9C184.3,416.3,189.2,424,194.3,432.3z"/>
<path class="st2" d="M336.4,344.3c-6.1,3.8-11.6,7.2-17.5,10.9c-4.8-7.7-9.5-15.3-14.2-22.8c-1.2-2-2.3-4.4-4.1-5.5
	c-2-1.2-5.4-2.2-7-1.3c-1.9,1.1-3.6,4.3-3.7,6.7c-0.1,2.4,1.5,5,2.9,7.3c4.5,7.6,9.2,15,14.1,22.9c-5.7,3.5-11.2,7-17.3,10.8
	c-4.3-7-8.6-13.9-12.9-20.7c-1.6-2.5-2.9-5.5-5.2-7.2c-1.9-1.4-5.2-2.2-7.4-1.6c-3.1,0.8-4.6,4-3.5,7.3c1,3,2.4,5.8,4,8.5
	c4.2,7,8.5,13.9,13,21.2c-5.7,3.5-11.3,7-17.3,10.8c-9.5-15.3-18.8-30.4-28.3-45.9c4.7-3,9.2-6.1,14-8.6c1.4-0.7,3.7,0.2,5.8,0.4
	c5.9-13.2,14.4-17.2,28.7-12.7c0.5-8.1,4.3-14.1,11.5-18c9-4.7,16.6-4,22.6,4.2C322.2,321.4,329,332.8,336.4,344.3z"/>
<path class="st2" d="M72.7,413.8c3.7,6,7.2,11.6,10.9,17.5c-7,4.5-13.9,8.6-20.5,13.2c-8.4,5.9-10.2,17.3-4.5,25.7
	c5.6,8.3,15.7,10.9,24.6,6c6.8-3.8,13.4-8,20.5-12.3c3.6,5.7,7.1,11.5,11.2,18c-10.7,5.9-20.6,13-31.6,17.3
	c-18.4,7.2-38.9-2.1-47.9-20.1c-8.6-17.2-3.3-38.8,12.6-49.8C56,423.9,64.3,419.1,72.7,413.8z"/>
<path class="st2" d="M93.1,431.3c5.8-3.6,11.3-7,17.2-10.7c4.7,7.6,9.4,15,14,22.5c1.1,1.8,2.3,3.7,3.7,5.3c2.3,2.6,5,3.8,8.4,1.9
	c3.5-2,5-5,3.5-8.8c-1.3-3.4-3.1-6.6-5-9.7c-3.7-6.3-7.7-12.4-11.8-19.1c5.7-3.6,11.3-7.1,17.3-10.8c9.5,15.4,18.9,30.6,28.5,46.1
	c-5.4,3.3-10.4,6.5-15.8,9.9c-1.2-0.8-2.5-1.7-2.9-1.9c-3.9,4.3-7.1,8.9-11.3,12.2c-8.2,6.3-17.5,5.4-23.9-2.7
	c-6.1-7.8-11.1-16.6-16.5-24.9C96.9,437.6,95.2,434.7,93.1,431.3z"/>
<path class="st2" d="M362.9,268.7c2.5-3.7,4.3-7.8,7.4-10.5c9.5-8.5,20.1-7.4,28.3,2.3c1.2,1.4,2.3,2.9,3.2,4.4
	c5.7,9.1,11.4,18.3,17.3,27.8c-5.7,3.6-11.2,7-17.3,10.8c-4.3-6.8-8.4-13.5-12.7-20.2c-1.5-2.4-3-4.8-4.8-7c-2.5-3-5.6-4.1-9.2-1.8
	c-3.7,2.3-4.8,5.7-2.9,9.4c2.6,5,5.7,9.8,8.6,14.6c2.5,4.1,5.1,8.2,8,12.8c-5.7,3.5-11.2,7-17.3,10.7c-9.4-15.3-18.8-30.3-28.4-45.9
	c5-3.1,9.8-6.4,14.8-9C359.2,266.8,361.6,268.3,362.9,268.7z"/>
<path class="st2" d="M316.6,292.8c5.9-3.7,11.4-7.1,17.4-10.7c9.4,15.3,18.8,30.5,28.3,45.9c-5.8,3.6-11.2,7-17.2,10.8
	C335.6,323.5,326.3,308.4,316.6,292.8z"/>
<path class="st2" d="M330.3,276.1c-6.1,3.8-11.5,7.2-17.2,10.7c-2.6-4.2-5.2-8.3-8-12.9c5.7-3.6,11.2-7,17.2-10.8
	C324.9,267.5,327.4,271.6,330.3,276.1z"/>
</svg>
