<?xml version="1.0" encoding="utf-8"?>
<!-- Generator: Adobe Illustrator 23.0.1, SVG Export Plug-In . SVG Version: 6.00 Build 0)  -->
<svg version="1.1" id="Layer_1" xmlns="http://www.w3.org/2000/svg" xmlns:xlink="http://www.w3.org/1999/xlink" x="0px" y="0px"
	 viewBox="0 0 595.3 841.9" style="enable-background:new 0 0 595.3 841.9;" xml:space="preserve">
<style type="text/css">
	.st0{fill:#204279;}
	.st1{fill:#FDFDFD;}
	.st2{fill:#E67A24;}
</style>
<path class="st0" d="M311.4,400.4c-0.6-0.5-1.2-1.1-1.9-1.4c-47.5-17.6-77.6-51.9-94.4-98.8c-5.6-15.6-8.5-31.6-8.4-48.3
	c0.3-40.6,0.1-81.2,0.1-121.9c0-1.2,0-2.4,0-3.8c71.7,0,143,0,214.8,0c0,1.6,0,3.1,0,4.6c0,39.3-0.4,78.5,0.1,117.8
	c0.3,24.4-5.6,47.2-15.7,69.1c-17.7,38.3-46,65.3-85.4,80.6c-1.7,0.7-3.4,1.4-5.1,2.1C314.1,400.4,312.8,400.4,311.4,400.4z
	 M211.8,210.4c0,13.2,0.3,26-0.1,38.7c-0.5,17,2.8,33.3,8.5,49.1c16.1,44.7,45.1,77.1,90,94.3c2.2,0.8,5.2,0.8,7.3,0
	c32.6-12.7,58.7-33.3,76.1-64c14.7-26,23.9-53.4,22.5-83.7c-0.5-10.3-0.1-20.6-0.1-30.9c0-1.2-0.2-2.3-0.2-3.5
	C347.7,210.4,279.9,210.4,211.8,210.4z M365.9,135.8c-12.2,0-22.2,9.1-23.4,21c-0.2,1.7-1.5,3.7-2.9,4.7
	c-9.4,7.2-12.3,19.9-6.7,30.2c5.8,10.5,18.3,14.9,29.4,10.3c2.6-1.1,4.7-1.1,7.3,0c10.9,4.6,23.3,0.2,29.1-10.1
	c5.7-10,3.2-23-6.1-29.9c-2.3-1.7-3.3-3.6-3.7-6.4C387.2,143.9,377.7,135.8,365.9,135.8z M308.7,197c0-18.1,0-35.8-0.1-53.5
	c0-0.8-1.2-2.3-2-2.4c-11.6-1.7-23.1-2.8-34.6,1c-1.9,0.6-4.3,0.6-6.2,0c-12.1-3.9-24.3-2.7-36.4-0.8c0,18.7,0,37,0,55.5
	c13.1-2.3,25.9-2.8,38.5,1.4c0.6,0.2,1.4,0.2,2,0C282.3,194.1,295.1,194.6,308.7,197z"/>
<path class="st0" d="M147.6,472.1c0,30.3,0,59.4,0,88.8c-5.6,0-11,0-16.6,0c0-40.4,0-80.6,0-121c7.2,0,14.2-0.3,21.2,0.1
	c4.9,0.3,8.3,3.4,11,7.4c17.9,25.7,35.9,51.4,53.9,77.1c0.7,1,1.4,1.9,2.6,3.7c0-29.9,0-58.9,0-88.1c5.9,0,11.3,0,17,0
	c0,40.2,0,80.4,0,120.5c-7.5,0-15.2,0.4-22.8-0.1c-4.6-0.3-7.4-4-9.9-7.7c-17.7-25.4-35.5-50.7-53.3-76.1
	C149.9,475.4,149.1,474.2,147.6,472.1z"/>
<path class="st0" d="M261.4,439.7c8.3,0,16.3,0,24.9,0c0,1.5,0,2.8,0,4.2c0,24.6-0.1,49.2,0.1,73.7c0.1,5.3,0.9,10.7,2.4,15.7
	c2.5,8.2,8.4,13.8,16.9,15.1c5.8,0.9,12.1,1.1,17.8-0.3c11.2-2.6,16.1-11.2,17.7-22c0.5-3.3,0.6-6.8,0.6-10.2
	c0.1-23.9,0-47.9,0-71.8c0-1.4,0-2.8,0-4.5c8.4,0,16.6,0,25,0c0.1,1,0.2,2,0.2,3c0,25.5,0.1,51,0,76.5c-0.1,13.1-3.4,25.1-13.9,34.1
	c-7,6-15.3,8.9-24.2,10.3c-12.8,2.1-25.5,1.8-38-1.8c-17.4-5.1-28.8-17.4-29.4-35.5C260.7,497.7,261.4,468.9,261.4,439.7z"/>
<path class="st0" d="M382.8,536.6c16.1,11.5,33.4,14.8,51.9,11.9c3.4-0.5,6.8-1.9,9.8-3.7c9.6-5.9,10.4-18.8,1.2-25.2
	c-5.3-3.7-11.5-6-17.5-8.6c-8.7-3.9-17.8-6.9-26.2-11.3c-10.4-5.4-16.8-14.2-18-26.3c-1.3-13.2,4.1-24.8,16.1-30.5
	c6.4-3,13.5-5.1,20.5-6c15.6-2.1,31-0.6,45.9,4.9c2.5,0.9,3.8,2.1,3.6,5c-0.3,4.3-0.1,8.6-0.1,12.2c-7.7-2.7-15.3-5.8-23.1-7.9
	c-8.8-2.4-17.9-1.8-26.8,0.3c-8.1,1.9-12.2,6.6-12.2,13.2c0,4.6,2.3,8.2,6,10.4c5.2,3.2,10.7,5.9,16.3,8.4
	c8.7,4.1,17.8,7.4,26.4,11.9c9.4,4.9,16.8,11.9,19.9,22.6c5,17.3-2.3,33.5-18.6,41c-10.2,4.7-21.1,6-32.1,6
	c-13.7,0-27.1-1.7-39.9-6.8c-2.5-1-3.3-2.3-3.2-4.9C382.9,547.8,382.8,542.4,382.8,536.6z"/>
<path class="st0" d="M134.8,617.4c-1.8,0-2.8,0-4,0c0-9,0-17.8,0-26.7c3.5-1.4,5.6-0.2,7.2,3c2.8,5.7,6,11.1,9.8,16.6
	c0-6.5,0-13,0-19.8c1.5-0.1,2.6-0.2,4-0.3c0,9.1,0,17.9,0,26.9c-3,1-5.1,0.5-6.7-2.8c-2.9-5.9-6.3-11.6-10.3-17.2
	C134.8,603.9,134.8,610.5,134.8,617.4z"/>
<path class="st0" d="M305.9,646.2c1.9-0.7,3.1-1.1,4.7-1.7c0,7.5,0.4,14.3-0.1,21c-0.5,6.8-10.4,10.9-16.2,6.8
	c-0.7-0.5-0.7-2-1.1-3.4c10.3,2.8,13.7,1.1,13.5-6.2c-6.4,3-10.5,2.6-13.2-1.3c-2.8-4-2.2-11.1,1.2-14.6
	C297.8,643.7,302.3,643.6,305.9,646.2z M307,654.4c-0.2-4.2-2.6-7-5.8-6.9c-3.3,0.1-5.5,3.3-5.3,7.7c0.2,4,2.6,6.7,5.7,6.5
	C304.8,661.5,307.1,658.4,307,654.4z"/>
<path class="st0" d="M342.3,663c0,3.4,0,6.4,0,9.7c-1.2,0.1-2.3,0.1-3.6,0.2c0-9.4,0-18.4,0-28.3c1.5,0.4,2.8,0.8,4.9,1.3
	c4.5-2.4,8.7-2.2,11.5,1.2c3.1,3.7,3,11.6-0.2,15.3C352.2,665.8,347.8,666.1,342.3,663z M353.5,654.5c-0.1-4.5-2.1-7.1-5.6-7
	c-3.4,0.1-5.7,3.2-5.6,7.6c0.1,4.1,2.6,7.2,5.8,7.1C351.4,662.2,353.5,659.1,353.5,654.5z"/>
<path class="st0" d="M296.5,590.3c1.6,0.1,2.5,0.1,4,0.2c0,5.8-0.1,11.4,0,16.9c0.1,3.2,1.1,6,4.6,6.9c4.1,1.1,7.5-0.8,8.1-5.1
	c0.6-4.1,0.4-8.3,0.5-12.5c0.1-2.1,0-4.1,0-6.3c1.4,0,2.4,0,3.5,0c0.1,0.3,0.4,0.7,0.4,1c0,5.2,0.2,10.5,0,15.7
	c-0.3,7.3-4.4,11.3-11,11c-6.5-0.2-10-4.2-10.1-11.4C296.5,601.4,296.5,596.1,296.5,590.3z"/>
<path class="st0" d="M251.6,641.1c-2.4-0.2-4.5-0.6-6.4-0.3c-1.1,0.2-2.7,1.5-3,2.5c-0.3,1,0.6,2.8,1.5,3.6c1.4,1.3,3.4,1.9,5.1,2.9
	c3.9,2.3,5.4,5.3,4.6,9c-0.8,3.7-3.4,5.9-8,6.2c-1.5,0.1-3.1,0-4.7-0.2c-2.6-0.2-3.3-1.6-2.1-4.1c1.8,0.3,3.7,1.2,5.3,0.8
	c1.9-0.5,4.3-1.8,4.9-3.4c0.5-1.1-1.2-3.6-2.5-4.9c-1.3-1.3-3.4-1.8-5.1-2.8c-2.9-1.7-3.9-4.4-3.3-7.7c0.6-3.3,2.8-5,5.9-5.4
	c1.9-0.3,3.9-0.1,5.8,0C252.3,637.5,252.5,638.9,251.6,641.1z"/>
<path class="st0" d="M393.7,613.6c0.2,5.3-3.8,4.3-6.3,4.4c-6.6,0.3-10.6-4-10.4-10.9c0.1-6.1,4-10.1,9.7-10c5.6,0.1,8.5,4,8.1,11.2
	c-4.4,0-8.8,0-13.1,0C381.3,614.4,385.1,616.1,393.7,613.6z M381.2,605.5c3.5,0,6.6,0,9.9,0c-0.2-3.1-1.5-5-4.5-5.1
	C383.3,600.2,381.7,602.1,381.2,605.5z"/>
<path class="st0" d="M173.8,616.7c-3,0.5-6,1.1-8.9,1.4c-4,0.4-7.1-1.8-7.6-5.1c-0.6-3.4,1.6-6.3,5.6-7.2c2.4-0.5,4.9-0.6,7.3-0.9
	c-0.8-5-3.1-5.7-10.7-3.1c0.2-1.2,0.2-2.8,0.5-2.8c3-0.6,6-1.4,9-1.3c2.9,0.1,4.6,2.5,4.8,5.4C173.9,607.7,173.8,612.4,173.8,616.7z
	 M170.2,607.9c-2.4,0.3-4.6,0.2-6.4,1c-1.2,0.5-1.7,2.4-2.6,3.6c1.3,0.8,2.6,2.3,4,2.4C168.4,615.3,170.1,612.8,170.2,607.9z"/>
<path class="st0" d="M225.2,607.8c-0.1,5.9-4.7,10.6-10.4,10.4c-5.8-0.2-10.1-4.9-9.9-10.9c0.2-5.9,4.4-10.1,10.2-10.1
	C221,597.2,225.3,601.7,225.2,607.8z M221.2,607.8c0-4.2-2.8-7.6-6.3-7.5c-3.4,0.1-6.1,3.2-6.1,7.3c0,4.3,2.7,7.6,6.3,7.5
	C218.5,615.1,221.2,611.9,221.2,607.8z"/>
<path class="st0" d="M209,655c-0.1,6.1-4.4,10.4-10.4,10.2c-5.7-0.1-9.9-4.6-9.9-10.4c0-6.1,4.2-10.3,10.3-10.3
	C205.1,644.5,209.1,648.7,209,655z M205.1,654.8c0-4.2-2.5-7.3-5.9-7.4c-3.6-0.1-6.3,3-6.3,7.4c0,4.2,2.5,7.2,6,7.3
	C202.5,662.3,205.1,659.3,205.1,654.8z"/>
<path class="st0" d="M269.2,616.6c-3.3,0.5-6.3,1.2-9.3,1.5c-3.9,0.3-6.8-1.8-7.2-5c-0.5-3.7,1.3-6.3,5.4-7.3
	c2.3-0.5,4.6-0.6,6.9-0.8c0.3-4.9-2.3-5.8-10.2-3.3c0.3-1.2,0.4-2.8,0.8-2.9c3.1-0.5,6.5-1.5,9.3-0.8c1.8,0.5,3.8,3.5,4.1,5.7
	C269.6,608.1,269.2,612.6,269.2,616.6z M265.5,608c-2.3,0.3-4.6,0.2-6.5,1c-1.1,0.4-2.6,2.6-2.3,3.3c0.5,1.2,2.2,2.6,3.5,2.8
	C263.5,615.5,265.2,613.1,265.5,608z"/>
<path class="st0" d="M371.2,644.5c6,0,10.3,4.3,10.2,10.4c0,6-4.5,10.4-10.3,10.4c-5.7-0.1-9.9-4.4-9.9-10.3
	C361.1,648.7,365.1,644.5,371.2,644.5z M371.2,647.5c-3.6,0-6.2,3.2-6.1,7.6c0.1,4.2,2.7,7.2,6.2,7.2c3.5,0,6.3-3.4,6.2-7.6
	C377.3,650.5,374.6,647.5,371.2,647.5z"/>
<path class="st0" d="M318,648.3c0.1-0.5,0.2-2.2,0.5-2.2c3.1-0.6,6.3-1.4,9.4-1.1c2.8,0.3,4.1,2.9,4.3,5.8c0,0.6,0.1,1.3,0.1,2
	c0,3.9,0,7.8,0,12.3c-1.4-0.5-2.6-0.8-4.4-1.4c-2.7,1.9-6.7,2.8-10.1-0.1c-1.4-1.2-2.3-4.8-1.6-6.5c2.1-5.2,7.3-4.5,12.7-4.8
	c-0.6-1.5-1-3.7-1.7-3.8C324.2,648.1,321.2,648.3,318,648.3z M328.5,655.2c-2.2,0.2-4.4,0.1-6.4,0.8c-1.1,0.4-2.6,2.6-2.3,3.3
	c0.5,1.2,2.2,2.6,3.5,2.8C326.8,662.6,328.5,660.1,328.5,655.2z"/>
<path class="st0" d="M418.3,655.6c-4.9,0-9.3,0-13.7,0c-0.2,6.1,3.4,7.6,13,5c-1.2,1.9-1.6,3.4-2.6,3.9c-3.9,1.9-10.2,0.5-12.7-2.4
	c-2.9-3.4-3-10.3-0.4-14c2.5-3.4,6-4.1,9.8-3.4c3.6,0.7,5.4,3.3,6,6.9C417.9,652.7,418.1,653.9,418.3,655.6z M414.1,652.5
	c-0.3-3.1-1.6-5.1-4.8-5c-3.3,0-4.8,1.9-4.9,5.4c2.8,0,5.4,0,8,0C412.9,652.9,413.3,652.7,414.1,652.5z"/>
<path class="st0" d="M273.3,664.6c-1.7,0-2.6,0-3.8,0c0-6.5,0-13,0-20.2c1.6,0.6,2.8,1,4.5,1.6c1.3-0.4,3.1-1.4,5.1-1.5
	c4.5-0.4,7.3,2,7.5,6.5c0.3,4.4,0.1,8.9,0.1,13.6c-1.1,0-2.2,0-3.7,0c0-4,0.1-7.9,0-11.8c-0.1-2.6-0.6-5.1-4-5.2
	c-3.3-0.1-5.3,1.9-5.6,4.9C273,656.3,273.3,660.2,273.3,664.6z"/>
<path class="st0" d="M453.7,598.2c3-1.2,4.2-0.2,5,2.6c1.1,4.1,2.6,8,4.3,13.2c1.8-5.4,3.4-9.6,4.6-13.9c0.7-2.4,1.9-2.8,4.5-1.8
	c-3.1,8.2-6,16.4-9.3,24.4c-1.3,3.2-4.2,4.1-8.7,3.1c1-1.1,1.6-2.3,2.5-2.5c3.7-1.2,4.9-3.4,3.6-7.1
	C458.1,610.2,455.9,604.2,453.7,598.2z"/>
<path class="st0" d="M243.9,617.2c0-3.8,0.1-7.5-0.1-11.3c-0.1-2.6-0.6-5.5-4.2-5.6c-3.5-0.1-5.3,2.2-5.7,5.3
	c-0.4,3.7-0.1,7.5-0.1,11.6c-1.3,0.2-2.4,0.3-3.8,0.5c0-6.6,0-12.9,0-19.5c0,0,0.3-0.3,0.3-0.3c3.1,1.5,6,0,9-0.6
	c4.1-0.8,7.2,1.6,7.7,5.8c0.5,4.1,0.5,8.3,0.3,12.5c0,0.9-1.6,1.7-2.5,2.6C244.7,617.8,244.3,617.5,243.9,617.2z"/>
<path class="st0" d="M328.8,598.9c1.6-0.5,3.7-1.5,5.7-1.6c3.7-0.2,6.5,1.6,6.8,5.5c0.4,4.8,0.1,9.6,0.1,14.6
	c-0.8,0.1-1.8,0.2-2.9,0.3c-0.1-0.6-0.4-1.1-0.4-1.6c-0.1-3.6,0.3-7.4-0.3-10.9c-0.3-1.8-2-4.1-3.6-4.6c-2.6-0.9-4.9,0.9-5.5,3.6
	c-0.6,2.9-0.6,5.9-0.8,8.9c-0.1,1.4,0,2.8,0,4.4c-1.3,0-2.3,0-3.6,0c0-6.3,0-12.6,0-19.7C325.9,598.1,327.3,598.5,328.8,598.9z"/>
<path class="st0" d="M191.4,615.9c-1.1,0.7-2.1,2-3.2,2.1c-2.9,0.2-5.6-0.6-6.2-4c-0.4-2.3-0.2-4.7-0.3-7c0-1.9,0-3.8,0-5.2
	c-1.9-1-3.4-1.8-4.8-2.5c0.2-0.4,0.3-0.8,0.5-1.3c1.2-0.1,2.5-0.2,3.7-0.4c1.3-1.8-0.7-5.7,4-5.1c0.2,1.5,0.3,3.1,0.5,5
	c1.6,0.2,3.1,0.3,4.9,0.5c0.8,4.5-3.5,1.8-5.1,3.8c0,2.3,0,5.1,0,7.9C185.5,614.4,186.3,615.1,191.4,615.9z"/>
<path class="st0" d="M220.2,664.5c-2.9,0.8-4,0.2-3.9-2.4c0.2-4.6,0-9.1,0-13.9c-1.5-0.2-2.9-0.4-4.4-0.7c-0.9-3.9,2.3-2.3,3.3-2.8
	c1.3-3.1,2-6.2,3.7-8.5c1-1.2,3.8-1.1,7.1-1.8c-1,1.9-1.4,3.6-1.8,3.6c-4.8,0-4.1,3.3-4.2,5.9c1.5,2,5.7-1.1,5.2,3.7
	c-1.7,0.1-3.2,0.2-5.1,0.3C220.2,653.5,220.2,658.9,220.2,664.5z"/>
<path class="st0" d="M452.6,615.7c-0.9,0.8-1.7,2.2-2.7,2.3c-2.8,0.4-5.8-0.1-6.5-3.5c-0.6-2.6-0.4-5.4-0.5-8.1
	c-0.1-1.7,0-3.4,0-4.7c-1.8-0.9-3.2-1.7-4.7-2.5c0.2-0.4,0.3-0.8,0.5-1.2c1.2-0.2,2.5-0.3,3.8-0.5c0.9-2-0.6-5.9,4-5
	c0.1,1.5,0.2,3.1,0.3,4.9c1.6,0.2,3.3,0.3,5,0.5c0.7,4.6-3.2,1.8-5.1,3.7c0,3-0.2,6.8,0.1,10.5c0.3,3.2,2.7,3.3,5.3,2.7
	C452.2,615.1,452.4,615.4,452.6,615.7z"/>
<path class="st0" d="M363.6,618.3c-2.6-7.2-4.9-13.6-7.2-20c2.8-1.1,4.1-0.4,4.9,2.4c1.1,4,2.6,7.9,4.3,12.9
	c1.8-5.1,3.2-9.2,4.7-13.2c1-2.7,1-2.7,4.4-2.1c-2.1,5.9-4.1,11.9-6.5,17.6C367.7,617.1,365.3,617.4,363.6,618.3z"/>
<path class="st0" d="M424.3,601c-0.5-0.1-1-0.5-1.4-0.4c-1.8,0.4-3.5,0.8-5.3,1.3c1.1,1.4,2,3.2,3.4,4c4.6,2.6,6,5.1,4.4,8.6
	c-1.5,3.2-6.4,4.8-10.3,3.1c-0.9-0.4-1.3-1.8-2-2.8c0.3-0.2,0.5-0.4,0.8-0.6c1.3,0.3,2.8,1.1,4,0.9c1.4-0.2,2.6-1.3,3.9-1.9
	c-0.7-1.1-1.3-2.3-2.1-3.3c-0.4-0.5-1.1-0.6-1.7-0.9c-4.4-2.3-5.6-4.7-4.2-7.9c1.3-2.9,5.5-4.6,9.1-3.3c0.9,0.3,1.4,1.7,2.1,2.6
	C424.9,600.4,424.6,600.7,424.3,601z"/>
<path class="st0" d="M397.4,647.2c-11.5,2.1-5.5,11.3-8.1,17.4c-0.5,0-1.6,0.1-2.9,0.3c0-6.8,0-13.2,0-20.4c1.6,0.5,2.8,1,3.6,1.3
	c2.4-0.4,4.6-0.8,6.8-1C396.9,644.7,397.2,646.5,397.4,647.2z"/>
<path class="st0" d="M403.3,617.5c-0.8,0-1.8,0-3,0c0-6.5,0-12.9,0-19.9c1.4,0.5,2.5,0.8,3.9,1.3c1.7-0.4,4-1,6.3-1.4
	c0.2,0,0.6,1.7,0.9,2.5C399.9,602,405.5,611.1,403.3,617.5z"/>
<path class="st0" d="M279.5,588.9c0,9.4,0,18.8,0,28.4c-1,0.1-2,0.2-2.8,0.3c-0.3-0.4-0.5-0.6-0.5-0.8c-0.1-8.6-0.1-17.2,0-25.9
	c0-1,1.3-2,2-3C278.6,588.3,279,588.6,279.5,588.9z"/>
<path class="st0" d="M199.2,617.4c-1,0-2,0-3.4,0c0-5.9-0.1-11.7,0.1-17.6c0-0.9,1.5-1.7,2.4-2.6c0.3,0.2,0.6,0.5,0.9,0.7
	C199.2,604.4,199.2,610.8,199.2,617.4z"/>
<path class="st0" d="M352,617.4c-1.1,0-2.1,0-3.3,0c0-6.4,0-12.8,0-19.5c1.1,0,2.1-0.1,3.3-0.1C352,604.4,352,610.8,352,617.4z"/>
<path class="st0" d="M434.4,617.4c-1.1,0-2.1,0-3.3,0c0-6.4,0-12.8,0-19.4c1.1,0,2.1,0,3.3,0C434.4,604.4,434.4,610.8,434.4,617.4z"
	/>
<path class="st0" d="M262.3,645c0,6.7,0,13,0,19.4c-2.4,0.9-3.5,0.3-3.4-2.3c0.1-5,0.1-9.9,0-14.9C258.8,644.9,260,644.5,262.3,645z
	"/>
<path class="st0" d="M258.5,636.5c1.6,0,2.7,0,4.2,0c0.1,1.2,0.1,2.4,0.2,3.8c-1.5,0-2.7,0-4.2,0C258.7,639.1,258.6,638,258.5,636.5
	z"/>
<path class="st0" d="M195.7,589.3c1.4,0,2.6,0,3.9,0c0,1.3,0,2.4,0,3.7c-1.3,0-2.5,0-3.9,0C195.7,591.9,195.7,590.7,195.7,589.3z"/>
<path class="st0" d="M434.7,588.6c0,2.1,0,3.1,0,4.4c-1.2,0.1-2.3,0.2-3.7,0.3c-0.1-1.1-0.6-2.6-0.1-3
	C431.6,589.5,433,589.3,434.7,588.6z"/>
<path class="st0" d="M352.3,589.4c0,1.3,0,2.3,0,3.6c-1.2,0-2.4,0-3.8,0c0-1.2,0-2.3,0-3.6C349.7,589.4,350.8,589.4,352.3,589.4z"/>
<path class="st1" d="M211.8,210.4c68.2,0,135.9,0,204,0c0.1,1.1,0.2,2.3,0.2,3.5c0,10.3-0.4,20.6,0.1,30.9
	c1.4,30.4-7.8,57.8-22.5,83.7c-17.4,30.8-43.5,51.4-76.1,64c-2.1,0.8-5.2,0.8-7.3,0c-44.9-17.2-73.9-49.6-90-94.3
	c-5.7-15.9-8.9-32.1-8.5-49.1C212,236.3,211.8,223.6,211.8,210.4z M253,338.7c4.6-0.5,1.4,2.4,1.6,4.1c3.2-0.6,4,0.9,3.2,3.1
	c5.2,3.9,10.5,2,15.7,0.8c1.1-0.3,2.1-0.6,3.2-0.8c4.4-0.7,6.8-3.2,8.3-7.4c3.1-9,8.4-16.2,17.3-20.4c1.3-0.6,2.5-1.5,4.4-2.6
	c-1.5-1-2.5-1.7-4.3-2.8c4-2,7.4-3.7,10.8-5.4c-0.6-1.1-1.3-2.2-2.4-4.1c4.6-1.3,8.6-2.4,13-3.6c-0.3-0.7-0.7-2-1.2-3.3
	c2.4-1.7,4.1-1.5,5.5,1.4c1,2.1,2.3,4.2,4.1,5.7c5.8,4.9,5.3,9.9,2.4,16.5c-2.6,5.9-5.5,8.3-11.8,7.5c-4.7-0.6-8.3,1.9-11.3,5.3
	c0,0.3,0,0.6,0,0.9c0.3-0.1,0.5-0.2,0.8-0.4c4.8-0.6,1.3,2.3,1.6,3.9c1,0,2,0,3.2,0c-0.3,1.4-0.5,2.5-0.7,3.4
	c1.2,0.1,2.3-0.1,3.2,0.2c4,1.7,17-0.6,20.1-3.6c0.6-0.6,1.1-1.2,1.4-2c2.3-6.3,6.2-11.2,12.8-13.8c-0.8-1.1-1.5-2-2.3-3.2
	c2.5-1.5,4.9-2.9,7.3-4.3c-8.2-6.1-9-9.2-3.9-15.6c2.4,2.7,4.7,5.3,7.1,7.9c7.5,8.3,7.3,8.2,3.6,18.8c-2.1,6-4.9,9.5-11.9,8.5
	c-4.7-0.7-8.1,2.3-11.7,5.9c1.7,0.1,2.7,0.1,3.9,0.2c-0.4,1.5-0.8,2.6-1,3.4c1.2,0.4,3,0.5,3.2,1.1c1.4,4.4,4.9,4.3,8.2,3.7
	c3.2-0.5,6.3-1.7,9.6-2.3c3.8-0.7,6.1-2.8,7.3-6.3c0.7-1.9,1.8-3.7,2.4-5.7c1.9-6.2,5.4-11,11.5-13.6c0.2-0.1,0.3-0.4,0.5-0.6
	c-0.5-0.9-1.1-1.7-1.9-2.9c2.6-1.4,4.9-2.7,7.6-4.1c-1.6-0.9-3.1-1.6-4.5-2.4c-5.5-2.9-10.2-6.3-10.4-13.3
	c-0.3-9.1-0.8-18.3-1.2-27.6c0.9-0.1,2.1-0.2,3.3-0.4c7.3-1.1,14.7-2,21-6.5c4.7-3.3,6.4-8.1,5.1-13.7c-1.1-4.6-4.9-8.2-10.4-8.5
	c-4.7-0.2-9.5,0.4-14.2,1.4c-7.2,1.5-14.2,4.5-21.5,5.3c-8.1,0.9-16.3,0.4-24.5,0c-2.9-0.1-5-2.3-4.7-5.7c0.3-3.2,2-5.2,5.2-5.3
	c5.2-0.3,10.4-0.5,15.6-0.4c2,0,4.2,0.8,6,1.8c7.8,3.8,15.7,3.6,24.6,1.2c-1.7-1-2.7-1.6-3.5-2.1c6.7-1.4,12.9-2.7,19.1-4
	c0.1-0.4,0.2-0.8,0.3-1.1c-3.7-1.1-7.5-2.2-11.1-3.3c0.1-0.3,0.5-1.2,0.6-1.4c-4.6-0.5-9.1-0.8-13.6-1.5c-5.5-0.9-10.6-0.2-15.4,2.8
	c-1.7,1-4,1.6-6,1.6c-6,0.2-12.1-0.3-18,0.3c-7.7,0.8-11.8,6.6-10.8,14.2c0.7,5.3,4.8,9.1,11.8,10.3c14.1,2.4,27.8,0.4,41.4-3.6
	c4.7-1.4,9.5-2.5,14.4-3.3c3.1-0.5,6.2,0,7,4c0.8,3.8-2,5.5-4.7,6.1c-5.8,1.5-11.7,3-17.7,3.3c-13.7,0.5-27.4,0.4-41,0.1
	c-6.5-0.2-13-1.5-19.6-2.2c-3.1-0.3-4.9-1.7-5.3-4.4c2.1-1.3,4-2.5,6-3.7c-2-1.7-3.4-3-4.4-3.8c2-1.5,3.6-2.8,5.2-4.1
	c-0.4-0.5-0.8-0.9-1.3-1.4c-2.3-2.7-4.6-5.5-7.1-8.3c0.8-0.7,1.9-1.8,3.3-3.1c-3.4-3.9-7.9-4.1-12.5-4.3c0.2-1,0.4-1.8,0.6-3
	c-6.8,1-14.6-3.8-19.4,4.6c-3.4-4.6-3.4-4.6-19.4-4.3c0.2,0.9,0.3,1.7,0.5,2.7c-4.6,0.4-9.3,0.3-12.5,4.5c1.4,1.2,2.6,2.3,3.3,2.9
	c-2.5,3-4.9,5.8-7.7,9.1c1.7,1.6,3.2,2.9,5,4.5c-1.5,1.3-3,2.5-5,4.1c2.3,1.4,4.2,2.5,6.1,3.7c-0.5,1.5-1.2,3.3-1.8,5.2
	c-5-3.3-8.8-7.2-10-13.1c-0.5-2.5-1.4-5-2.1-7.5c-1.5-4.9-5.2-7.6-10.9-8.1c3.5,4.1,0.2,4.5-1.4,4.7c-1.1,2.9-1.9,5.2-2.7,7.1
	c0.4,1,0.8,2.1,1.2,3.2c0.6,1.8,0.6,4.2,1.8,5.2c6.2,5,8.7,12.5,12.9,18.8c1.1,1.6,1.8,3.7,2,5.7c0.6,4.7,0.9,9.3,1.4,14
	c1.4-0.3,2.7-0.6,4.3-0.9c0,3.9,0,7.4,0,11c5.2-6.1,12.8-5.7,19.4-7.8c0.9,1.3,1.7,2.4,3.3,4.7c1.2-2,2.2-3.6,3-5
	c1.1,3.4,1.3,6.9,3.2,8.8c5,5.3,4.5,10.9,2.4,17c-1,2.9-1.6,5.8-2.5,8.7c-2.3,7.6-2.4,7.7-10.3,7.7c-4.8,0-9,1.4-12.2,5.2
	c0,0.3,0,0.7-0.1,1C252.7,339.1,252.9,338.9,253,338.7z"/>
<path class="st2" d="M365.9,135.8c11.8,0,21.2,8.1,23,19.9c0.4,2.7,1.3,4.6,3.7,6.4c9.3,6.9,11.8,19.8,6.1,29.9
	c-5.8,10.3-18.2,14.7-29.1,10.1c-2.6-1.1-4.7-1.1-7.3,0c-11.1,4.7-23.6,0.2-29.4-10.3c-5.7-10.2-2.8-23,6.7-30.2
	c1.4-1.1,2.8-3,2.9-4.7C343.8,144.9,353.7,135.8,365.9,135.8z M363.2,197.6c-1.5-0.3-3.1-0.8-4.6-0.8c-2.4,0-4.9,0.8-7.3,0.5
	c-8.1-1.1-13.7-6.9-14.6-14.9c-0.9-7.4,3.4-14.6,10.3-17.5c7.2-3,15.3-0.8,20.1,5.8c1.6,2.2,2.8,3.1,5,1c-5.4-10.9-17.7-15-28.2-9.5
	c-10.5,5.5-14.3,18.3-8.5,28.6C340.9,200.7,353.6,204.3,363.2,197.6z M345.4,158.2c2.9,0.5,3.5-1.1,4.2-3.4
	c1.8-6.4,6.1-10.8,12.7-12.1c6.9-1.4,12.8,0.7,17.1,6.4c7.9,10.4,1.6,24.7-11.9,26.9c-2.3,0.4-4.1,0.5-3,3.5
	c11.1,1,21.1-7.3,21.9-18.2c0.9-12.1-7.6-22.3-19.1-22.9C355.5,137.9,345.6,146.6,345.4,158.2z M361.4,169
	c-6.8,9.7-4.2,22.9,5.9,29.2c10.1,6.3,23.4,3,29.2-7.4c5.4-9.7,2-22.8-7.9-27c0.2,1.8,0.6,3.6,1.7,4.8c4,4.5,6,9.5,4.7,15.5
	c-1.5,6.8-5.6,11.2-12.3,13c-6.9,1.8-12.8-0.3-17.3-5.7c-4.4-5.3-5-11.4-2.2-17.7C364,171.4,364.2,170,361.4,169z M352.1,156.3
	c4.4,1.3,8.6,2.5,12.7,3.7c0.6,0.2,1.3,0.3,1.9,0.2c4.2-1.2,8.5-2.6,12.8-3.9c-0.4-5.7-5.7-10.9-12.3-11.3
	C359.2,144.4,353.5,148.8,352.1,156.3z M373.9,193.7c6,2.7,13.4,0.1,16.9-6.3c3.5-6.4,1.9-14-3.3-17.2c-3.3,3-6.4,6-9.5,8.9
	c-0.5,0.5-1,1.3-1.2,2C375.7,185.2,374.8,189.4,373.9,193.7z M357.8,193.6c-1-4.3-1.9-8.6-2.9-12.8c-0.1-0.6-0.5-1.2-1-1.7
	c-3.2-3.1-6.5-6.1-9.8-9.2c-5.5,3.1-6.3,12.8-2.8,18C345.2,194,352.4,196.4,357.8,193.6z M368.1,161.9c3.4,5.3,7.2,1.1,10.4,1.7
	c0.4,0.1,1.2-2,1.9-3.1c-0.3-0.4-0.6-0.7-0.9-1.1C375.8,160.2,372.2,161,368.1,161.9z M347.7,167.1c-0.3,0.5-0.6,1.1-0.8,1.6
	c2.5,2.7,5,5.5,7.9,8.6c2.7-5.8-2.8-6.7-3.8-9.7C350.8,167.1,348.8,167.2,347.7,167.1z M369.5,192.3c0.6-0.1,1.1-0.1,1.7-0.2
	c1.1-3.5,2.2-6.9,3.5-10.8c-6.3,0.2-4.5,5.4-6.4,7.9C367.9,189.6,369,191.3,369.5,192.3z"/>
<path class="st2" d="M308.7,197c-13.6-2.4-26.3-2.8-38.9,1.4c-0.6,0.2-1.4,0.2-2,0c-12.6-4.2-25.4-3.7-38.5-1.4
	c0-18.5,0-36.8,0-55.5c12.2-2,24.3-3.2,36.4,0.8c1.9,0.6,4.3,0.6,6.2,0c11.5-3.8,23-2.7,34.6-1c0.8,0.1,2,1.6,2,2.4
	C308.7,161.2,308.7,178.9,308.7,197z M232.1,184.6c12.2,0.5,23.8,1,35.5,1.6c0-12.3,0.1-25-0.1-37.6c0-1.2-1.4-3-2.5-3.4
	c-10.1-3.7-20.5-2.8-30.9-1.5c-0.8,0.1-1.9,1.6-1.9,2.4C232,159.1,232.1,172.1,232.1,184.6z M305.4,184.6c0-13,0-26.8,0-40.7
	c-10.5-1.4-20.7-2.3-30.8,0.6c-3.2,0.9-4.6,2.2-4.5,5.8c0.3,8.8,0.1,17.6,0.1,26.3c0,3.5,0,7,0,9.5
	C282.1,185.6,293.5,185.1,305.4,184.6z"/>
<path class="st0" d="M311.6,332.4c3-3.4,6.6-5.9,11.3-5.3c6.3,0.8,9.2-1.7,11.8-7.5c2.9-6.6,3.4-11.6-2.4-16.5
	c-1.7-1.5-3-3.6-4.1-5.7c-1.4-2.9-3.1-3.1-5.5-1.4c0.4,1.2,0.9,2.5,1.2,3.3c-4.4,1.2-8.4,2.4-13,3.6c1.1,1.9,1.8,3,2.4,4.1
	c-3.5,1.7-6.8,3.4-10.8,5.4c1.8,1.2,2.8,1.8,4.3,2.8c-2,1.2-3.2,2-4.4,2.6c-8.8,4.2-14.2,11.4-17.3,20.4c-1.5,4.3-3.9,6.7-8.3,7.4
	c-1.1,0.2-2.1,0.5-3.2,0.8c-5.2,1.3-10.5,3.1-15.7-0.8c0.7-2.2-0.1-3.7-3.2-3.1c-0.2-1.7,3-4.6-1.6-4.1c-0.1-0.2-0.3-0.3-0.4-0.5
	c3.2-3.8,7.4-5.2,12.2-5.2c7.9-0.1,7.9-0.1,10.3-7.7c0.9-2.9,1.5-5.8,2.5-8.7c2-6.1,2.6-11.7-2.4-17c-1.8-2-2-5.5-3.2-8.8
	c-0.8,1.4-1.8,3-3,5c-1.6-2.3-2.4-3.5-3.3-4.7c-6.6,2.1-14.2,1.7-19.4,7.8c0-3.5,0-7,0-11c-1.6,0.3-2.8,0.6-4.3,0.9
	c-0.4-4.7-0.7-9.4-1.4-14c-0.3-2-0.9-4.1-2-5.7c-4.2-6.3-6.7-13.8-12.9-18.8c-1.2-1-1.2-3.4-1.8-5.2c-0.4-1.1-0.8-2.2-1.2-3.2
	c0.7-1.9,1.6-4.1,2.7-7.1c1.6-0.3,5-0.6,1.4-4.7c5.8,0.5,9.4,3.2,10.9,8.1c0.8,2.5,1.6,5,2.1,7.5c1.2,6,4.9,9.9,10,13.1
	c0.7-1.9,1.3-3.7,1.8-5.2c-1.9-1.2-3.9-2.3-6.1-3.7c1.9-1.6,3.4-2.8,5-4.1c-1.8-1.6-3.3-3-5-4.5c2.8-3.3,5.2-6.1,7.7-9.1
	c-0.7-0.6-1.9-1.7-3.3-2.9c3.1-4.2,7.9-4.1,12.5-4.5c-0.2-0.9-0.3-1.8-0.5-2.7c16-0.3,16-0.3,19.4,4.3c4.8-8.4,12.6-3.6,19.4-4.6
	c-0.2,1.2-0.4,2-0.6,3c4.6,0.1,9.1,0.4,12.5,4.3c-1.4,1.3-2.5,2.4-3.3,3.1c2.4,2.8,4.7,5.6,7.1,8.3c0.4,0.5,0.8,0.9,1.3,1.4
	c-1.6,1.3-3.2,2.5-5.2,4.1c1,0.9,2.5,2.1,4.4,3.8c-2,1.2-3.9,2.4-6,3.7c0.4,2.7,2.2,4.1,5.3,4.4c6.5,0.7,13,2.1,19.6,2.2
	c13.7,0.3,27.4,0.4,41-0.1c5.9-0.2,11.9-1.8,17.7-3.3c2.7-0.7,5.5-2.4,4.7-6.1c-0.8-3.9-4-4.5-7-4c-4.8,0.8-9.7,1.9-14.4,3.3
	c-13.6,4-27.3,6-41.4,3.6c-7-1.2-11.1-5-11.8-10.3c-1-7.6,3.1-13.4,10.8-14.2c6-0.6,12-0.1,18-0.3c2-0.1,4.3-0.6,6-1.6
	c4.8-2.9,9.9-3.6,15.4-2.8c4.5,0.7,9.1,1,13.6,1.5c-0.1,0.2-0.5,1.1-0.6,1.4c3.7,1.1,7.4,2.2,11.1,3.3c-0.1,0.4-0.2,0.8-0.3,1.1
	c-6.2,1.3-12.4,2.6-19.1,4c0.8,0.5,1.8,1.1,3.5,2.1c-8.9,2.4-16.8,2.6-24.6-1.2c-1.9-0.9-4-1.7-6-1.8c-5.2-0.1-10.4,0.1-15.6,0.4
	c-3.2,0.2-4.9,2.2-5.2,5.3c-0.3,3.4,1.8,5.6,4.7,5.7c8.1,0.4,16.4,0.9,24.5,0c7.3-0.8,14.2-3.8,21.5-5.3c4.6-1,9.5-1.6,14.2-1.4
	c5.5,0.2,9.3,3.9,10.4,8.5c1.3,5.6-0.4,10.4-5.1,13.7c-6.3,4.5-13.6,5.4-21,6.5c-1.2,0.2-2.4,0.3-3.3,0.4c0.4,9.4,0.9,18.5,1.2,27.6
	c0.3,7,4.9,10.4,10.4,13.3c1.4,0.7,2.9,1.5,4.5,2.4c-2.7,1.5-5,2.7-7.6,4.1c0.8,1.2,1.3,2,1.9,2.9c-0.2,0.2-0.3,0.5-0.5,0.6
	c-6.1,2.6-9.6,7.4-11.5,13.6c-0.6,1.9-1.7,3.8-2.4,5.7c-1.3,3.5-3.5,5.7-7.3,6.3c-3.2,0.6-6.3,1.8-9.6,2.3c-3.4,0.5-6.8,0.6-8.2-3.7
	c-0.2-0.6-1.9-0.7-3.2-1.1c0.2-0.8,0.6-1.9,1-3.4c-1.3-0.1-2.2-0.1-3.9-0.2c3.6-3.6,7-6.6,11.7-5.9c7,1,9.8-2.6,11.9-8.5
	c3.7-10.6,3.9-10.5-3.6-18.8c-2.4-2.6-4.7-5.3-7.1-7.9c-5,6.4-4.3,9.5,3.9,15.6c-2.4,1.4-4.8,2.8-7.3,4.3c0.9,1.2,1.5,2,2.3,3.2
	c-6.6,2.6-10.5,7.5-12.8,13.8c-0.3,0.7-0.8,1.4-1.4,2c-3.1,3-16.1,5.3-20.1,3.6c-0.9-0.4-2-0.2-3.2-0.2c0.2-0.9,0.4-2,0.7-3.4
	c-1.3,0-2.3,0-3.2,0c-0.3-1.6,3.2-4.6-1.6-3.9C312.1,332.8,311.9,332.6,311.6,332.4z M303.5,280c-1.3-0.5-3.1-1.2-5.3-2.1
	c0.2,6,0.6,11.7-4.5,16.8c-1.2-1.7-2.2-3.1-3.2-4.6c-0.3,6.6-3.8,11.1-7.5,15.7c-1,1.3-1.6,3.1-2.1,4.8c-2,6.7-3.9,13.4-5.7,20.1
	c-0.9,3.1-2.7,4.5-6,4.3c-2.6-0.2-5.2-0.1-7.8,0.3c-1,0.2-1.9,1.5-2.7,2.4c-0.1,0.2,0.6,1.1,1,1.6c1.6,2.2,3.2,4.5,5.1,7.2
	c4.7-1.1,9.6-2.2,14.4-3.6c1.1-0.3,2.3-1.6,2.9-2.7c5.5-9.8,10.9-19.6,16.4-29.4c2.5-4.5,6.4-8.4,3.6-14.3c14-4.1,27.4-8.1,40.8-12
	c-0.6-2-0.9-3.4-1.3-4.8c0.5-0.3,0.9-0.5,1.4-0.8c2.4,2.7,5,5.2,7.2,8c4.8,6,9,12.4,14.1,18.2c7.6,8.8,7.8,8.6,3.8,19.5
	c-3.7,10.2-3.7,10.1-14.6,10.7c-1.5,0.1-4.1,1.8-4,2.5c0.2,1.7,1.5,3.4,2.6,4.9c0.9,1.1,2.2,1.8,4.1,3.3c2.1-0.5,5.2-1.6,8.4-2.1
	c3.8-0.6,5.9-2.7,7.4-6.2c3.9-8.5,8.1-16.8,12-25.2c0.5-1,0-3.3-0.9-3.9c-4.9-3.4-6.5-8.3-6.7-13.9c-0.4-9.1-0.8-18.2-1.2-27.5
	c2.3-0.3,5.5-0.3,8.5-1.1c5.4-1.4,10.9-2.8,15.9-5.1c4.9-2.3,6.5-7,5.3-11.8c-1.1-4.4-4.7-7.4-10-7.7c-2.4-0.2-5-0.1-7.3,0.4
	c-10.3,2.3-20.4,5.5-30.7,7.1c-6.8,1-14,0.5-20.8-0.5c-6.1-0.9-8.6-6.8-5.2-11.4c1.6-2.1,4.9-3.4,7.7-3.8c5.1-0.6,10.4-0.2,15.6-0.2
	c1.1,0,2.2-0.2,4.1-0.4c-1.2-1-1.5-1.6-1.9-1.6c-7.4,0-14.8-0.3-22.1,0.4c-5.1,0.5-7.6,4.2-8,9c-0.4,4.6,1.9,8.6,6.8,10.1
	c4,1.2,8.3,2,12.5,2.1c11.5,0.4,22.6-1.7,33.6-5.1c4.9-1.5,10.1-2.3,15.3-2.7c3.2-0.3,5.7,1.6,6.6,5.1c0.8,3.4-0.5,6-3.5,7.6
	c-2.1,1.2-4.5,2.2-6.8,2.7c-8.2,1.8-16.4,2.9-24.8,1.5c-3.5-0.6-7.1-0.4-10.7-0.3c-7.5,0.1-15.1,0.8-22.6,0.5
	c-6.8-0.3-13.5-1.5-20.4-2.3C309.4,266.3,306.6,272.8,303.5,280z M280.6,235c-2.3-4.8-5.1-3.6-8.2-2.2c-1.8,0.8-3.9,0.7-5.8,1.3
	c-1.5,0.4-3.7,0.7-4.2,1.8c-0.6,1.3,0.2,3.2,0.4,4.9c0.1,1.3,0.9,2.9,0.3,3.8c-1.2,2.1-0.7,3.3,0.6,5c2.5,3.3,6.6,5.7,5.9,10.7
	c-0.4,2.8,1.4,4.5,3.6,4.5c2.1,0,4.9-0.7,6.1-2.1c1.6-2.1-0.4-4-2.5-5.1c-0.6-0.3-1.3-0.4-1.9-0.6c0.3-0.5,0.6-1,1-1.4
	c2.6,0,5.3,0,8.3,0c0-4.4,0-8.3,0-12.4c2.5,0,4.6,0,6.7,0c-5.4,2.1-5.2,6.1-4.4,10.7c0.2,1.2-1.3,2.8-2.1,4.2
	c-0.9,1.5-1.9,2.9-2.8,4.3c1.9,0.9,3.9,2.4,5.9,2.5c1.3,0,4-2.2,3.8-3.1c-0.7-5.3,2.9-8.3,5.7-11.7c1.7-2,2.5-3.6,0.8-6.1
	c-0.5-0.7,0.5-2.3,0.7-3.5c0.3-1.5,1.1-3.4,0.5-4.4c-0.6-1.1-2.6-1.6-4-2c-2.2-0.6-4.6-0.5-6.6-1.5
	C285.3,231.1,282.9,230.6,280.6,235z M323.8,339.9c3.6-0.9,7.5-1.5,11-2.9c2.2-0.9,4.3-2.7,5.5-4.7c3.8-6.3,7.3-12.8,10.8-19.3
	c0.5-0.8,0.8-2.3,0.4-3c-2.5-4.2-1.1-8,0.8-11.7c1.3-2.5,0.8-3.8-1.2-5.5c-4.5-3.9-9-4.5-14.7-1.7c0.2,0.9,0.4,1.8,0.6,3
	c-2.8,0-5.3,0-9,0c3.5,4.6,6.2,8.6,9.5,12.2c2.2,2.4,2.5,4.7,1.3,7.5c-1.7,4-3.6,8-5.1,12.1c-0.8,2.2-2.1,2.8-4.3,2.7
	c-3-0.1-6.1-0.1-9,0.4c-2.2,0.3-4,1.3-1.3,3.9C320.9,334.8,322,337.2,323.8,339.9z M225.2,246.7c2.5,2.7,5.3,4.7,6.9,7.4
	c6.3,10.3,12.2,20.7,18.4,31.1c4.5,7.6,5.1,7.7,13.2,4c0.2-0.1,0.4-0.3,0.5-0.4c0-3.6,0-7.1,0-10.8c-2.2,0.8-4,1.6-5.8,2.2
	c-2.3-9-5.6-16.9-13.2-22.7c-3-2.3-4.9-6.4-6.6-10c-1.9-4.1-2.9-8.7-4.3-13c-2.1,0.5-3.5,0.9-5.2,1.3c2.8,4.3-0.7,3.8-4.1,3.7
	c1.7,1.9,2.7,3.2,4,4.6C227.8,244.9,226.8,245.6,225.2,246.7z M272.9,265.7c1.8,5.5,4.1,6.5,11,5.4c2.8-0.4,4.1-1.8,3.3-5.4
	C282.5,265.7,277.8,265.7,272.9,265.7z"/>
<path class="st0" d="M312.4,333c-0.3,0.1-0.5,0.2-0.8,0.4c0-0.3,0-0.6,0-0.9C311.9,332.6,312.1,332.8,312.4,333z"/>
<path class="st0" d="M253,338.7c-0.2,0.2-0.3,0.3-0.5,0.5c0-0.3,0-0.7,0.1-1C252.7,338.4,252.9,338.6,253,338.7z"/>
<path class="st1" d="M363.2,197.6c-9.6,6.7-22.3,3.1-27.8-6.8c-5.8-10.2-2-23.1,8.5-28.6c10.5-5.5,22.8-1.4,28.2,9.5
	c-2.1,2.1-3.4,1.2-5-1c-4.8-6.6-12.9-8.8-20.1-5.8c-6.9,2.9-11.2,10.1-10.3,17.5c1,8,6.5,13.8,14.6,14.9c2.4,0.3,4.9-0.5,7.3-0.5
	C360.1,196.8,361.7,197.3,363.2,197.6z"/>
<path class="st1" d="M345.4,158.2c0.2-11.6,10.1-20.3,22-19.7c11.5,0.6,20,10.8,19.1,22.9c-0.8,10.9-10.8,19.2-21.9,18.2
	c-1.2-3,0.7-3.2,3-3.5c13.5-2.2,19.8-16.5,11.9-26.9c-4.3-5.7-10.2-7.8-17.1-6.4c-6.6,1.3-10.9,5.6-12.7,12.1
	C348.9,157.1,348.3,158.7,345.4,158.2z"/>
<path class="st1" d="M361.4,169c2.8,1,2.6,2.4,1.7,4.6c-2.8,6.3-2.2,12.4,2.2,17.7c4.5,5.4,10.4,7.5,17.3,5.7
	c6.7-1.8,10.8-6.2,12.3-13c1.3-6-0.7-11-4.7-15.5c-1.1-1.2-1.5-3-1.7-4.8c9.9,4.3,13.4,17.3,7.9,27c-5.8,10.4-19.1,13.8-29.2,7.4
	C357.2,191.9,354.5,178.7,361.4,169z"/>
<path class="st0" d="M352.1,156.3c1.4-7.5,7.1-11.9,15.1-11.4c6.6,0.4,11.9,5.6,12.3,11.3c-4.4,1.3-8.6,2.7-12.8,3.9
	c-0.6,0.2-1.3,0-1.9-0.2C360.6,158.8,356.5,157.6,352.1,156.3z"/>
<path class="st0" d="M373.9,193.7c1-4.3,1.9-8.5,2.9-12.6c0.2-0.7,0.7-1.5,1.2-2c3.1-3,6.3-5.9,9.5-8.9c5.2,3.3,6.8,10.9,3.3,17.2
	C387.3,193.8,379.8,196.4,373.9,193.7z"/>
<path class="st0" d="M357.8,193.6c-5.5,2.7-12.7,0.4-16.6-5.6c-3.4-5.3-2.6-15,2.8-18c3.4,3.1,6.6,6.1,9.8,9.2
	c0.5,0.4,0.8,1.1,1,1.7C355.9,185.1,356.9,189.3,357.8,193.6z"/>
<path class="st1" d="M368.1,161.9c4.1-0.9,7.8-1.7,11.4-2.5c0.3,0.4,0.6,0.7,0.9,1.1c-0.6,1.1-1.4,3.1-1.9,3.1
	C375.3,163,371.5,167.2,368.1,161.9z"/>
<path class="st1" d="M347.7,167.1c1.1,0.2,3.1,0,3.2,0.5c1.1,3.1,6.6,4,3.8,9.7c-2.9-3.2-5.4-5.9-7.9-8.6
	C347.2,168.2,347.4,167.6,347.7,167.1z"/>
<path class="st1" d="M369.5,192.3c-0.5-1.1-1.6-2.7-1.3-3.1c2-2.5,0.1-7.7,6.4-7.9c-1.3,3.9-2.4,7.3-3.5,10.8
	C370.6,192.2,370,192.3,369.5,192.3z"/>
<path class="st1" d="M232.1,184.6c0-12.5,0-25.5,0.1-38.5c0-0.9,1.1-2.3,1.9-2.4c10.4-1.3,20.8-2.2,30.9,1.5
	c1.1,0.4,2.5,2.2,2.5,3.4c0.2,12.6,0.1,25.2,0.1,37.6C255.8,185.6,244.3,185.1,232.1,184.6z M251,156.6c-3.7,0.4-6.5,0.5-9.1,1.1
	c-1.1,0.2-2.1,1.5-3.1,2.3c1.2,0.4,2.3,1,3.5,1c5.6,0.4,11.3,0.7,17,0.9c1,0,2-0.6,3-0.9c-0.7-0.8-1.3-2.1-2.2-2.4
	C256.8,157.6,253.4,157,251,156.6z M251.3,164.8c-3.9,0.4-7.2,0.7-10.4,1.3c-0.8,0.1-1.5,1.2-2.2,1.9c1,0.5,2,1.5,2.9,1.4
	c6-0.8,11.9-1.3,17.8,0.8c0.7,0.3,1.8-0.5,2.8-0.8c-0.6-0.8-1.1-2.2-1.9-2.5C257.1,166,253.9,165.4,251.3,164.8z M251.4,173.2
	c-4,0.4-7.1,0.7-10.2,1.2c-0.9,0.2-1.7,1.3-2.5,2c1,0.5,2.1,1.4,3,1.3c6-0.9,11.9-1.3,17.8,0.9c0.7,0.3,1.8-0.6,2.7-0.9
	c-0.6-0.8-1-2-1.7-2.2C257.3,174.5,254,173.8,251.4,173.2z M251.1,148.2c-3.7,0.4-6.6,0.6-9.4,1.1c-1.1,0.2-2,1.3-3,2
	c1.1,0.4,2.2,1.4,3.3,1.3c5.8-0.6,11.6-1.2,17.4,0.9c0.7,0.3,1.8-0.5,2.8-0.7c-0.6-0.9-1.1-2.2-1.9-2.5
	C257,149.3,253.6,148.7,251.1,148.2z"/>
<path class="st1" d="M305.4,184.6c-11.9,0.5-23.3,1-35.2,1.5c0-2.5,0-6,0-9.5c0-8.8,0.2-17.6-0.1-26.3c-0.1-3.7,1.3-4.9,4.5-5.8
	c10.2-2.8,20.3-2,30.8-0.6C305.4,157.8,305.4,171.6,305.4,184.6z M286.6,156.5c-2.5,0.6-6.1,1.4-9.6,2.4c-0.6,0.2-1,1.4-1.4,2.1
	c0.8,0.4,1.8,1.3,2.3,1.1c6.1-2.4,12.3-1.8,18.6-1c0.8,0.1,1.7-0.8,2.6-1.2c-0.7-0.7-1.2-1.9-2-2C294.1,157.2,290.9,157,286.6,156.5
	z M286.6,164.8c-2.5,0.6-6,1.3-9.3,2.3c-0.7,0.2-1.1,1.5-1.6,2.3c0.8,0.3,1.8,1.2,2.4,1c6.1-2.4,12.3-1.8,18.6-0.9
	c0.7,0.1,1.6-0.9,2.5-1.4c-0.7-0.7-1.3-1.8-2.1-1.9C293.9,165.6,290.8,165.3,286.6,164.8z M289.5,173.5c-0.1-0.2-0.1-0.4-0.2-0.6
	c-4.1,0.9-8.2,1.7-12.3,2.7c-0.6,0.2-1,1.3-1.5,2c0.8,0.4,1.8,1.3,2.3,1.1c6.3-2.3,12.6-1.9,19-0.9c0.7,0.1,1.5-0.8,2.2-1.3
	c-0.6-0.7-1.2-1.8-2-2C294.7,174,292.1,173.8,289.5,173.5z M286.7,148.2c-2.6,0.6-6.1,1.3-9.7,2.3c-0.6,0.2-1,1.3-1.5,2.1
	c0.8,0.4,1.8,1.4,2.3,1.2c6.2-2.5,12.6-1.7,19-1c0.7,0.1,1.5-0.8,2.2-1.2c-0.6-0.7-1.2-1.9-1.9-2.1
	C294.1,148.9,291,148.6,286.7,148.2z"/>
<path class="st2" d="M303.5,280c3.1-7.2,5.9-13.8,8.6-20.3c6.9,0.8,13.7,2,20.4,2.3c7.5,0.3,15.1-0.4,22.6-0.5
	c3.6-0.1,7.2-0.2,10.7,0.3c8.4,1.3,16.7,0.3,24.8-1.5c2.4-0.5,4.7-1.6,6.8-2.7c2.9-1.6,4.3-4.2,3.5-7.6c-0.8-3.4-3.3-5.4-6.6-5.1
	c-5.1,0.5-10.4,1.2-15.3,2.7c-11,3.4-22.1,5.5-33.6,5.1c-4.2-0.1-8.5-0.9-12.5-2.1c-4.9-1.5-7.2-5.4-6.8-10.1c0.4-4.8,3-8.5,8-9
	c7.3-0.7,14.7-0.4,22.1-0.4c0.4,0,0.8,0.6,1.9,1.6c-1.9,0.2-3,0.4-4.1,0.4c-5.2,0-10.5-0.4-15.6,0.2c-2.7,0.3-6.1,1.7-7.7,3.8
	c-3.5,4.6-1,10.5,5.2,11.4c6.8,1,14,1.6,20.8,0.5c10.4-1.6,20.5-4.8,30.7-7.1c2.4-0.5,4.9-0.6,7.3-0.4c5.3,0.3,8.9,3.3,10,7.7
	c1.2,4.8-0.4,9.5-5.3,11.8c-5,2.3-10.5,3.7-15.9,5.1c-3,0.8-6.2,0.8-8.5,1.1c0.4,9.3,0.8,18.4,1.2,27.5c0.3,5.6,1.8,10.5,6.7,13.9
	c0.8,0.6,1.3,2.9,0.9,3.9c-3.9,8.5-8.1,16.8-12,25.2c-1.6,3.4-3.6,5.6-7.4,6.2c-3.2,0.5-6.3,1.6-8.4,2.1c-1.9-1.5-3.3-2.2-4.1-3.3
	c-1.2-1.5-2.5-3.2-2.6-4.9c-0.1-0.7,2.5-2.4,4-2.5c10.9-0.6,10.9-0.5,14.6-10.7c4-10.9,3.8-10.8-3.8-19.5c-5-5.8-9.3-12.2-14.1-18.2
	c-2.2-2.8-4.8-5.4-7.2-8c-0.5,0.3-0.9,0.5-1.4,0.8c0.4,1.4,0.8,2.8,1.3,4.8c-13.4,3.9-26.8,7.9-40.8,12c2.8,5.9-1.1,9.8-3.6,14.3
	c-5.5,9.8-10.9,19.6-16.4,29.4c-0.6,1.1-1.8,2.4-2.9,2.7c-4.8,1.4-9.8,2.5-14.4,3.6c-1.9-2.7-3.5-4.9-5.1-7.2
	c-0.4-0.5-1.1-1.4-1-1.6c0.8-0.9,1.7-2.3,2.7-2.4c2.6-0.4,5.2-0.4,7.8-0.3c3.3,0.2,5.1-1.2,6-4.3c1.9-6.7,3.8-13.4,5.7-20.1
	c0.5-1.7,1-3.5,2.1-4.8c3.6-4.6,7.2-9,7.5-15.7c1,1.4,2,2.9,3.2,4.6c5.1-5.1,4.8-10.8,4.5-16.8C300.4,278.8,302.3,279.5,303.5,280z"
	/>
<path class="st2" d="M280.6,235c2.2-4.4,4.7-3.9,7.8-2.4c2,1,4.4,0.9,6.6,1.5c1.5,0.4,3.4,0.9,4,2c0.6,1.1-0.2,2.9-0.5,4.4
	c-0.2,1.2-1.1,2.8-0.7,3.5c1.7,2.5,0.9,4.1-0.8,6.1c-2.9,3.4-6.4,6.4-5.7,11.7c0.1,0.9-2.5,3.1-3.8,3.1c-2-0.1-3.9-1.6-5.9-2.5
	c0.9-1.4,1.9-2.9,2.8-4.3c0.8-1.4,2.3-2.9,2.1-4.2c-0.8-4.6-1.1-8.7,4.4-10.7c-2.1,0-4.2,0-6.7,0c0,4.1,0,8,0,12.4c-3,0-5.7,0-8.3,0
	c-0.3,0.5-0.6,1-1,1.4c0.7,0.2,1.4,0.3,1.9,0.6c2.1,1.1,4.1,3,2.5,5.1c-1.1,1.5-4,2.2-6.1,2.1c-2.2-0.1-4-1.7-3.6-4.5
	c0.7-5.1-3.4-7.5-5.9-10.7c-1.3-1.8-1.9-3-0.6-5c0.5-0.9-0.2-2.5-0.3-3.8c-0.2-1.7-1-3.6-0.4-4.9c0.5-1,2.7-1.4,4.2-1.8
	c1.9-0.5,4.1-0.5,5.8-1.3C275.5,231.4,278.3,230.2,280.6,235z"/>
<path class="st2" d="M323.8,339.9c-1.8-2.8-2.9-5.1-4.7-6.9c-2.6-2.6-0.9-3.6,1.3-3.9c3-0.5,6-0.5,9-0.4c2.2,0,3.5-0.5,4.3-2.7
	c1.5-4.1,3.4-8.1,5.1-12.1c1.2-2.8,0.9-5-1.3-7.5c-3.3-3.6-6-7.7-9.5-12.2c3.6,0,6.2,0,9,0c-0.2-1.2-0.4-2.1-0.6-3
	c5.6-2.9,10.1-2.2,14.7,1.7c2,1.7,2.5,3,1.2,5.5c-1.9,3.7-3.4,7.5-0.8,11.7c0.4,0.7,0.1,2.1-0.4,3c-3.5,6.5-6.9,13-10.8,19.3
	c-1.2,2-3.4,3.8-5.5,4.7C331.3,338.5,327.4,339,323.8,339.9z"/>
<path class="st2" d="M225.2,246.7c1.7-1.1,2.6-1.8,3.9-2.6c-1.2-1.4-2.3-2.7-4-4.6c3.4,0.1,6.9,0.6,4.1-3.7c1.7-0.4,3.1-0.8,5.2-1.3
	c1.4,4.4,2.4,8.9,4.3,13c1.6,3.6,3.6,7.7,6.6,10c7.6,5.8,10.8,13.7,13.2,22.7c1.8-0.7,3.6-1.4,5.8-2.2c0,3.7,0,7.2,0,10.8
	c-0.1,0-0.2,0.3-0.5,0.4c-8.2,3.7-8.7,3.6-13.2-4c-6.2-10.3-12.1-20.8-18.4-31.1C230.4,251.4,227.7,249.4,225.2,246.7z"/>
<path class="st2" d="M272.9,265.7c4.8,0,9.6,0,14.2,0c0.8,3.6-0.4,5-3.3,5.4C277,272.2,274.7,271.2,272.9,265.7z"/>
<path class="st0" d="M251,156.6c2.4,0.5,5.7,1.1,9,2c0.9,0.3,1.5,1.5,2.2,2.4c-1,0.3-2,1-3,0.9c-5.7-0.2-11.3-0.5-17-0.9
	c-1.2-0.1-2.3-0.7-3.5-1c1-0.8,2-2,3.1-2.3C244.5,157,247.3,156.9,251,156.6z"/>
<path class="st0" d="M251.3,164.8c2.6,0.6,5.8,1.2,8.9,2.2c0.8,0.3,1.3,1.6,1.9,2.5c-0.9,0.3-2,1-2.8,0.8
	c-5.9-2.2-11.8-1.6-17.8-0.8c-0.9,0.1-1.9-0.9-2.9-1.4c0.7-0.7,1.4-1.7,2.2-1.9C244.1,165.6,247.4,165.3,251.3,164.8z"/>
<path class="st0" d="M251.4,173.2c2.6,0.6,5.9,1.3,9.1,2.2c0.7,0.2,1.1,1.5,1.7,2.2c-0.9,0.3-2,1.2-2.7,0.9
	c-5.9-2.2-11.8-1.8-17.8-0.9c-0.9,0.1-2-0.8-3-1.3c0.8-0.7,1.6-1.8,2.5-2C244.3,173.9,247.4,173.7,251.4,173.2z"/>
<path class="st0" d="M251.1,148.2c2.5,0.5,5.9,1.1,9.1,2.1c0.8,0.2,1.3,1.6,1.9,2.5c-0.9,0.3-2,1-2.8,0.7
	c-5.7-2.1-11.5-1.5-17.4-0.9c-1,0.1-2.2-0.8-3.3-1.3c1-0.7,1.9-1.8,3-2C244.5,148.8,247.4,148.6,251.1,148.2z"/>
<path class="st0" d="M286.6,156.5c4.3,0.5,7.4,0.7,10.5,1.3c0.8,0.1,1.3,1.3,2,2c-0.9,0.4-1.8,1.4-2.6,1.2c-6.3-0.8-12.5-1.4-18.6,1
	c-0.6,0.2-1.6-0.7-2.3-1.1c0.5-0.7,0.8-1.9,1.4-2.1C280.5,157.9,284.1,157.1,286.6,156.5z"/>
<path class="st0" d="M286.6,164.8c4.2,0.5,7.3,0.7,10.4,1.3c0.8,0.1,1.4,1.2,2.1,1.9c-0.8,0.5-1.7,1.5-2.5,1.4
	c-6.3-0.9-12.5-1.4-18.6,0.9c-0.6,0.2-1.6-0.6-2.4-1c0.5-0.8,0.9-2.1,1.6-2.3C280.7,166.1,284.1,165.4,286.6,164.8z"/>
<path class="st0" d="M289.5,173.5c2.6,0.3,5.2,0.5,7.7,1.1c0.8,0.2,1.3,1.3,2,2c-0.7,0.4-1.6,1.4-2.2,1.3c-6.4-1-12.7-1.4-19,0.9
	c-0.6,0.2-1.5-0.7-2.3-1.1c0.5-0.7,0.9-1.9,1.5-2c4.1-1,8.2-1.8,12.3-2.7C289.4,173.1,289.4,173.3,289.5,173.5z"/>
<path class="st0" d="M286.7,148.2c4.3,0.5,7.4,0.7,10.5,1.3c0.7,0.1,1.3,1.4,1.9,2.1c-0.7,0.4-1.6,1.3-2.2,1.2
	c-6.4-0.8-12.7-1.5-19,1c-0.5,0.2-1.5-0.7-2.3-1.2c0.5-0.7,0.8-1.9,1.5-2.1C280.6,149.5,284.2,148.7,286.7,148.2z"/>
</svg>
