<?xml version="1.0" encoding="utf-8"?>
<!-- Generator: Adobe Illustrator 23.0.1, SVG Export Plug-In . SVG Version: 6.00 Build 0)  -->
<svg version="1.1" id="Layer_1" xmlns="http://www.w3.org/2000/svg" xmlns:xlink="http://www.w3.org/1999/xlink" x="0px" y="0px"
	 viewBox="0 0 595.3 841.9" style="enable-background:new 0 0 595.3 841.9;" xml:space="preserve">
<style type="text/css">
	.st0{fill:#0AD09F;}
</style>
<path class="st0" d="M172.6,364.1c-8.7,9.5-17.4,18.5-24.9,28.1c-7.8,9.5-9.8,21.4-11.6,33.5c-2,14.5,0,28.1,5.5,41.4
	c10.1,24.9,28.9,40.5,54.7,47.1c29.8,7.5,56.4-0.9,78.4-21.4c13.9-13,21.7-29.8,23.4-49.5c2-18.8,2.3-37.6,10.7-55.2
	c8.7-18.5,19.7-35,36.2-47.4c17.6-13.3,37.3-22.3,59.3-24.9c36.4-4.3,70,3.5,98.6,26.9c23.1,18.8,37.9,43.1,42.5,73.2
	c4.9,32.1-1.4,61.9-20,88.5c-20.2,28.9-48,45.1-82.7,50.3c-28.9,4.3-56.1,0-81.8-14.5c-12.4-6.9-23.7-15.6-32.4-27.2
	c-0.9-1.2-0.9-4-0.3-5.5c4.9-12.7,9.8-25.2,15-37.9c0.6-1.7,2-3.2,3.2-5.2c6.4,15.3,14.8,28.3,28.3,37.3
	c17.1,11.3,35.3,16.8,56.4,14.2c19.1-2.3,35-9.5,48.9-21.7c11.6-10.4,19.7-24,22.8-39c6.1-29.5,0.6-56.4-21.7-77.8
	c-17.4-16.8-38.8-23.1-63-22.6c-32.1,0.9-63.6,25.2-72.3,54.7c-2.3,7.8-3.5,16.2-4,24.3c-2.3,35.3-13.6,66.8-40.5,90.8
	c-19.1,17.1-41.6,26.9-67.4,30.1c-28.1,3.5-54.1-1.4-79-14.8c-20-10.7-35-26.3-46.3-46c-11-19.1-15.9-39.9-15.6-61.6
	c0.3-23.1,7.2-45.1,20.2-64.8c1.2-1.7,3.5-3.8,5.5-3.8C136.7,364.1,155,364.1,172.6,364.1z"/>
<path class="st0" d="M21,315c66.2,0,131.6-0.6,197.2,0.3c23.1,0.3,46,5.5,65.9,18.5c10.7,6.9,19.7,16.5,29.5,25.2
	c0.6,0.6,0.9,2.6,0.3,3.5c-6.9,13.9-13.9,27.5-20,39.9c-5.5-7.5-11.3-17.4-19.1-25.5c-12.1-12.1-27.2-19.4-44.5-21.4
	c-7.8-0.9-15.6-1.4-23.4-1.4c-59.3,0-118.6,0-177.9,0c-2.6,0-5.2,0-8.1,0C21,340.7,21,328,21,315z"/>
</svg>
