<?xml version="1.0" encoding="utf-8"?>
<!-- Generator: Adobe Illustrator 23.0.1, SVG Export Plug-In . SVG Version: 6.00 Build 0)  -->
<svg version="1.1" id="Layer_1" xmlns="http://www.w3.org/2000/svg" xmlns:xlink="http://www.w3.org/1999/xlink" x="0px" y="0px"
	 viewBox="0 0 444 166" style="enable-background:new 0 0 444 166;" xml:space="preserve">
<style type="text/css">
	.st0{clip-path:url(#SVGID_2_);fill:url(#SVGID_3_);}
	.st1{clip-path:url(#SVGID_5_);fill:url(#SVGID_6_);}
	.st2{clip-path:url(#SVGID_8_);fill:url(#SVGID_9_);}
	.st3{clip-path:url(#SVGID_11_);fill:url(#SVGID_12_);}
	.st4{clip-path:url(#SVGID_14_);fill:url(#SVGID_15_);}
	.st5{clip-path:url(#SVGID_17_);fill:url(#SVGID_18_);}
	.st6{fill:#6B9505;}
</style>
<g>
	<defs>
		<path id="SVGID_1_" d="M10.4,68.7c0,0,0,0.1,0,0.1v0.3c0,4.2,1.9,9.9,6.5,14.6c1.6,1.6,3.4,2.9,5.5,4c-1.3,6.5-1.8,14-0.9,22.6
			l4.6-0.2c-1.7-8-1.8-15-1-21.1c19.3,7.2,49.4-9.4,26-77.9C48.7,41.6,11,39.5,10.4,68.7"/>
	</defs>
	<clipPath id="SVGID_2_">
		<use xlink:href="#SVGID_1_"  style="overflow:visible;"/>
	</clipPath>
	
		<linearGradient id="SVGID_3_" gradientUnits="userSpaceOnUse" x1="-24.182" y1="363.9201" x2="-22.2455" y2="363.9201" gradientTransform="matrix(20.8165 31.9482 31.9482 -20.8165 -11103.5498 8373.6836)">
		<stop  offset="0" style="stop-color:#D3D100"/>
		<stop  offset="3.370670e-02" style="stop-color:#D3D100"/>
		<stop  offset="0.1976" style="stop-color:#C2C701"/>
		<stop  offset="0.5204" style="stop-color:#96AE03"/>
		<stop  offset="0.8" style="stop-color:#6B9505"/>
		<stop  offset="1" style="stop-color:#6B9505"/>
	</linearGradient>
	<polygon class="st0" points="55.5,-18.3 120,80.7 29.6,139.6 -35,40.6 	"/>
</g>
<g>
	<defs>
		<path id="SVGID_4_" d="M10.4,68.7c0,0,0,0.1,0,0.1v0.3c0,4.2,1.9,9.9,6.5,14.6c1.6,1.6,3.4,2.9,5.5,4c1-5.3,2.6-9.9,4.3-14.1
			c-3.1-4.9-6.4-14.5-6.2-21.1v0C22,58.1,25,65.8,28,70.9c2.4-4.9,5.2-9.3,8-13.6c-3.2-4.7-4-12.5-3.9-14.1c0,0,0,0,0,0
			c0.8,2.7,2.4,7.4,5.3,12c2.7-4,5.3-8,7.5-12.3c-1.4-2.9-2.4-7.5-2.2-8.9c0.6,2,2.2,4.6,3.6,6.2c2.9-5.8,4.4-10.5,5-13.5
			c0.7-4.7,0.8-9.9-0.1-15.7C48.7,41.6,11,39.5,10.4,68.7"/>
	</defs>
	<clipPath id="SVGID_5_">
		<use xlink:href="#SVGID_4_"  style="overflow:visible;"/>
	</clipPath>
	
		<radialGradient id="SVGID_6_" cx="-23.1437" cy="364.1646" r="1.9371" gradientTransform="matrix(59.8865 0 0 -59.8865 1382.384 21805.7891)" gradientUnits="userSpaceOnUse">
		<stop  offset="0" style="stop-color:#D5D830"/>
		<stop  offset="0.191" style="stop-color:#D5D830"/>
		<stop  offset="0.2958" style="stop-color:#BDC926"/>
		<stop  offset="0.5083" style="stop-color:#91AD14"/>
		<stop  offset="0.6735" style="stop-color:#759B09"/>
		<stop  offset="0.77" style="stop-color:#6B9505"/>
		<stop  offset="1" style="stop-color:#6B9505"/>
	</radialGradient>
	<rect x="10.4" y="11" class="st1" width="41.6" height="76.7"/>
</g>
<g>
	<defs>
		<path id="SVGID_7_" d="M39.9,68.7c-0.1,4.3,1.7,10.2,6.5,15c16.4,16.4,61.4,6.8,34.2-72.7C78.2,41.6,40.4,39.5,39.9,68.7"/>
	</defs>
	<clipPath id="SVGID_8_">
		<use xlink:href="#SVGID_7_"  style="overflow:visible;"/>
	</clipPath>
	
		<radialGradient id="SVGID_9_" cx="-22.9043" cy="364.1658" r="1.9364" gradientTransform="matrix(59.8869 0 0 -59.8869 1397.4893 21806.0547)" gradientUnits="userSpaceOnUse">
		<stop  offset="0" style="stop-color:#E4ECF7"/>
		<stop  offset="0.1319" style="stop-color:#E0EAF6"/>
		<stop  offset="0.2509" style="stop-color:#D5E4F3"/>
		<stop  offset="0.3649" style="stop-color:#C3DAEE"/>
		<stop  offset="0.476" style="stop-color:#A9CCE8"/>
		<stop  offset="0.5849" style="stop-color:#88BADF"/>
		<stop  offset="0.6921" style="stop-color:#5FA4D4"/>
		<stop  offset="0.796" style="stop-color:#2F8BC7"/>
		<stop  offset="0.8854" style="stop-color:#0071BB"/>
		<stop  offset="1" style="stop-color:#0071BB"/>
	</radialGradient>
	<rect x="39.8" y="11" class="st2" width="68" height="89.1"/>
</g>
<g>
	<defs>
		<path id="SVGID_10_" d="M39.9,68.7c-0.1,4.3,1.7,10.2,6.5,15c0.6,0.6,1.2,1.1,1.8,1.6c8.3-6.8,13.8-20.6,10.4-44.3
			C49.2,47.7,40.2,54.5,39.9,68.7"/>
	</defs>
	<clipPath id="SVGID_11_">
		<use xlink:href="#SVGID_10_"  style="overflow:visible;"/>
	</clipPath>
	
		<radialGradient id="SVGID_12_" cx="-22.9152" cy="364.1544" r="1.936" gradientTransform="matrix(59.8907 0 0 -59.8907 1398.2336 21806.9063)" gradientUnits="userSpaceOnUse">
		<stop  offset="0" style="stop-color:#FFFFFF"/>
		<stop  offset="4.684599e-02" style="stop-color:#E8EFF7"/>
		<stop  offset="0.1043" style="stop-color:#D4E0EF"/>
		<stop  offset="0.1696" style="stop-color:#C6D6EA"/>
		<stop  offset="0.2491" style="stop-color:#BED0E7"/>
		<stop  offset="0.382" style="stop-color:#BBCEE6"/>
		<stop  offset="0.4696" style="stop-color:#8EB8DC"/>
		<stop  offset="0.6293" style="stop-color:#4292CA"/>
		<stop  offset="0.7434" style="stop-color:#127ABF"/>
		<stop  offset="0.8" style="stop-color:#0071BB"/>
		<stop  offset="1" style="stop-color:#0071BB"/>
	</radialGradient>
	<rect x="39.8" y="41" class="st3" width="22.2" height="44.3"/>
</g>
<g>
	<defs>
		<path id="SVGID_13_" d="M69.7,68.7c-0.1,4.3,1.7,10.2,6.5,15c16.4,16.4,61.4,6.8,34.2-72.7C108,41.6,70.2,39.5,69.7,68.7"/>
	</defs>
	<clipPath id="SVGID_14_">
		<use xlink:href="#SVGID_13_"  style="overflow:visible;"/>
	</clipPath>
	
		<radialGradient id="SVGID_15_" cx="-22.668" cy="364.1622" r="1.9373" gradientTransform="matrix(59.8861 0 0 -59.8861 1413.0918 21805.5488)" gradientUnits="userSpaceOnUse">
		<stop  offset="0" style="stop-color:#FFEC00"/>
		<stop  offset="0.1354" style="stop-color:#FFEC00"/>
		<stop  offset="0.1608" style="stop-color:#FFE600"/>
		<stop  offset="0.2627" style="stop-color:#FDD500"/>
		<stop  offset="0.3718" style="stop-color:#FCCA00"/>
		<stop  offset="0.5" style="stop-color:#FCC700"/>
		<stop  offset="0.7855" style="stop-color:#F39B00"/>
		<stop  offset="0.95" style="stop-color:#EF8700"/>
		<stop  offset="1" style="stop-color:#EF8700"/>
	</radialGradient>
	<rect x="69.6" y="11" class="st4" width="68" height="89.1"/>
</g>
<g>
	<defs>
		<path id="SVGID_16_" d="M69.7,68.7c-0.1,4.3,1.7,10.2,6.5,15c0.5,0.5,1.1,1,1.6,1.5c8.2-6.8,13.6-20.6,10.3-43.9
			C78.8,47.9,70,54.7,69.7,68.7"/>
	</defs>
	<clipPath id="SVGID_17_">
		<use xlink:href="#SVGID_16_"  style="overflow:visible;"/>
	</clipPath>
	
		<radialGradient id="SVGID_18_" cx="-22.6729" cy="364.1538" r="1.9355" gradientTransform="matrix(59.8845 0 0 -59.8845 1413.423 21804.5684)" gradientUnits="userSpaceOnUse">
		<stop  offset="0" style="stop-color:#FFE800"/>
		<stop  offset="5.165766e-03" style="stop-color:#FFE600"/>
		<stop  offset="8.205359e-02" style="stop-color:#FAD200"/>
		<stop  offset="0.1691" style="stop-color:#F7C400"/>
		<stop  offset="0.2748" style="stop-color:#F6BC00"/>
		<stop  offset="0.45" style="stop-color:#F5B900"/>
		<stop  offset="0.5078" style="stop-color:#F3AC00"/>
		<stop  offset="0.6234" style="stop-color:#F19700"/>
		<stop  offset="0.7381" style="stop-color:#EF8B00"/>
		<stop  offset="0.85" style="stop-color:#EF8700"/>
		<stop  offset="1" style="stop-color:#EF8700"/>
	</radialGradient>
	<rect x="69.6" y="41.2" class="st5" width="21.8" height="43.9"/>
</g>
<path class="st6" d="M278.7,121.7c0-4.5-3.6-9.8-10.3-9.8h-14.5v32.6h6.7v-28.1h5.3c5.1,0,5.9,3.8,5.9,5.6c0,3-1.1,5.5-5.7,5.5
	c-2.3,0-3.3,0.5-3.4,1.8c-0.1,1.2,1.4,2,2.9,2.2C272.2,132.8,278.7,128.8,278.7,121.7"/>
<path class="st6" d="M417.4,129.4c2.5-0.7,6.7-2.9,6.7-8.6c0-4.5-3.5-9-10.3-9h-14.5v32.6h6.7v-28.1h5.3c5.1,0,5.8,3,5.8,4.8
	c0,3-2.1,4.9-5.6,4.9c-2.3,0-3.6,0.9-3.6,2.4c0,0.8,0.5,1.9,3,2.3c3.1,0.5,4.3,3.5,5.9,7.3c0,0,1.3,3.2,1.8,4.2
	c0.5,1,0.9,2.2,3.2,2.2h5.2l-2.3-5C422.6,134.4,420.7,131.4,417.4,129.4"/>
<polygon class="st6" points="377.1,129.9 392.8,129.9 392.8,125.4 377.1,125.4 377.1,116.3 393.6,116.3 393.6,111.9 370.4,111.9 
	370.4,144.5 393.9,144.5 393.9,140 377.1,140 "/>
<path class="st6" d="M298.3,111.4c-12.1,0-17.4,8.4-17.4,16.7c0,8.3,5.4,16.8,17.4,16.8c11.9,0,17.4-8.7,17.4-16.8
	C315.7,119.9,310.4,111.4,298.3,111.4 M298.3,139.6c-6.7,0-10.5-4.2-10.5-11.5c0-7.3,3.8-11.5,10.5-11.5c6.6,0,10.4,4.2,10.4,11.5
	C308.8,135.5,305,139.6,298.3,139.6"/>
<path class="st6" d="M363.4,111.9c-2.3,0-2.5,1.2-2.9,2.2l-7.4,23.8l-7.4-26h-6.1c-2.2,0-2.5,1.1-2.8,2.1l-7.1,24.1l-7-26.2h-7.4
	l9.6,32.6h8.6l7.6-25.7l7.2,25.7h8.5l9.9-32.6H363.4z"/>
<path class="st6" d="M36.3,142.1l0.3-4.7c3.2,1.4,7,2.3,9.1,2.2c1.9-0.1,7.1,0.1,6.8-4.4c-0.3-5.6-16.1-4.5-16.1-14.7
	c0-7,7.4-9.5,13.3-9.5c2.2,0,5.5,0.6,7.6,1.2l-0.1,2.2c0,1.3-1.2,2-2.4,1.8c-1.7-0.3-3.5-0.5-5-0.4c-1.9,0.1-6.6,0.4-6.3,3.8
	c0.3,5,16.3,4.2,16.3,15.5c0,6.8-6.7,9.3-13.8,9.3C43.3,144.5,39.2,143.7,36.3,142.1"/>
<path class="st6" d="M79.7,115.9c2.2-0.1,3.7,0.1,4.9,0.3c1.4,0.3,2.5-0.4,2.5-1.7l0.1-2.2c-2-0.6-4.9-1.3-8-1.3
	c-12.1,0-17.4,8.4-17.4,16.7s5.4,16.7,17.4,16.7c3.1,0,6-0.6,8-1.3l-0.3-4.6c-1.9,0.6-3.5,1.1-7.3,1c-6.7-0.2-10.9-4.6-10.9-11.8
	C68.8,120.5,73,116.1,79.7,115.9"/>
<path class="st6" d="M105.5,111c-12.1,0-17.4,8.4-17.4,16.7c0,8.3,5.4,16.7,17.4,16.7c11.9,0,17.4-8.7,17.4-16.7
	C122.9,119.5,117.5,111,105.5,111 M105.5,139.3c-6.7,0-10.5-4.2-10.5-11.5c0-7.3,3.8-11.5,10.5-11.5c6.6,0,10.4,4.2,10.4,11.5
	C115.9,135.1,112.1,139.3,105.5,139.3"/>
<rect x="177" y="111.9" class="st6" width="6.7" height="32.6"/>
<polygon class="st6" points="146.6,111.9 122.4,111.9 122.4,116.3 131.4,116.3 131.4,144.4 138.1,144.4 138.1,116.3 146.6,116.3 "/>
<polygon class="st6" points="173.1,111.9 148.9,111.9 148.9,116.3 157.9,116.3 157.9,144.4 164.6,144.4 164.6,116.3 173.1,116.3 "/>
<polygon class="st6" points="239.8,111.9 239.8,125.4 224.3,125.4 224.3,111.9 217.6,111.9 217.6,144.4 224.3,144.4 224.3,129.8 
	239.8,129.8 239.8,144.4 246.5,144.4 246.5,111.9 "/>
<path class="st6" d="M189.6,142.1l0.3-4.7c3.2,1.4,7,2.3,9.1,2.2c1.9-0.1,7.1,0.1,6.8-4.4c-0.3-5.6-16.1-4.5-16.1-14.7
	c0-7,7.4-9.5,13.3-9.5c2.2,0,5.5,0.6,7.6,1.2l-0.1,2.2c0,1.3-1.2,2-2.4,1.8c-1.7-0.3-3.5-0.5-5-0.4c-1.9,0.1-6.6,0.4-6.3,3.8
	c0.3,5,16.3,4.2,16.3,15.5c0,6.8-6.7,9.3-13.8,9.3C196.7,144.5,192.6,143.7,189.6,142.1"/>
<g>
</g>
<g>
</g>
<g>
</g>
<g>
</g>
<g>
</g>
<g>
</g>
</svg>
