<?xml version="1.0" encoding="UTF-8"?>
<svg version="1.1" xmlns="http://www.w3.org/2000/svg" width="844" height="780">
<path d="M0 0 C278.52 0 557.04 0 844 0 C844 257.4 844 514.8 844 780 C565.48 780 286.96 780 0 780 C0 522.6 0 265.2 0 0 Z " fill="#FEFEFE" transform="translate(0,0)"/>
<path d="M0 0 C2 2 2 2 2.10180664 3.83349609 C1.21436826 11.91677245 -0.65555108 19.73644102 -2.5625 27.625 C-2.8957763 29.02459827 -3.22846293 30.42433709 -3.56054688 31.82421875 C-4.36691468 35.2177912 -5.18121611 38.60939899 -6 42 C-8.31 42 -10.62 42 -13 42 C-13 44.97 -13 47.94 -13 51 C-13.99 51 -14.98 51 -16 51 C-15.91105469 51.85464844 -15.82210937 52.70929688 -15.73046875 53.58984375 C-16.06807379 57.86128144 -17.83908812 60.23539614 -20.3125 63.5625 C-31.826809 79.93937588 -40.51228515 98.57212851 -46.9375 117.5 C-57.18476801 147.41546652 -78.09139726 171.12114547 -103 190 C-85.20964576 191.28347245 -69.10616582 182.67195714 -55.70849609 171.51074219 C-50.07685294 166.53094684 -44.86727518 161.07872139 -39.63671875 155.68505859 C-37.7770755 153.77049152 -35.89452709 151.88002815 -34 150 C-39.30447249 169.03369539 -53.83755308 181.76290187 -70 192 C-52.59525278 189.57563812 -33.01886054 182.94377562 -20.34765625 170.21484375 C-19 169 -19 169 -17 169 C-16.60361328 168.11441406 -16.60361328 168.11441406 -16.19921875 167.2109375 C-14.95896573 164.92434725 -13.63459145 163.46793917 -11.8125 161.625 C6.99734119 140.46881687 8.13044836 108.58145817 7 82 C6.57450343 76.07958062 5.735413 70.28382333 4.4375 64.48828125 C3.94295088 61.67553312 3.9031158 59.04138852 3.9375 56.1875 C3.94652344 55.21167969 3.95554687 54.23585938 3.96484375 53.23046875 C3.98224609 52.12638672 3.98224609 52.12638672 4 51 C5.32 51 6.64 51 8 51 C8 48.36 8 45.72 8 43 C6.02 43 4.04 43 2 43 C4.03279923 31.79481398 6.83143502 20.93342779 10 10 C13.15719572 11.39390539 15.2812653 13.03634972 17.6875 15.5 C18.28949219 16.1084375 18.89148438 16.716875 19.51171875 17.34375 C21 19 21 19 22 21 C22.68707031 20.7215625 23.37414062 20.443125 24.08203125 20.15625 C44.61771166 12.01895228 64.70997286 8.11361654 85.9375 16.5625 C104.20032331 24.85644517 116.6632993 37.18107067 123.9375 56 C128.86597247 71.89513967 126.74630629 87.9023363 119.3125 102.625 C112.68967613 114.02088148 103.02169149 124.65220567 92 132 C91.3375489 134.70526408 91.3375489 134.70526408 91.0625 137.875 C88.93185648 153.44244377 83.15677881 163.22274572 71 173 C70.39671875 173.52464844 69.7934375 174.04929687 69.171875 174.58984375 C59.21306078 182.81214205 47.25189019 185.17756768 34.6875 185.1875 C33.88376953 185.19974609 33.08003906 185.21199219 32.25195312 185.22460938 C26.59328407 185.23826666 21.46674338 184.44681393 16 183 C15.835 184.155 15.67 185.31 15.5 186.5 C12.71952819 198.72249068 6.02008167 210.41645618 -4 218 C-17.53136354 226.26052589 -33.52653041 228.84932891 -49.09375 225.1953125 C-60.7487138 221.38907432 -70.80784803 214.03477332 -79 205 C-79.9953597 203.99538114 -80.99406544 202.99403001 -82 202 C-82.51949219 202.33773437 -83.03898437 202.67546875 -83.57421875 203.0234375 C-84.27160156 203.46945312 -84.96898437 203.91546875 -85.6875 204.375 C-86.37199219 204.81585938 -87.05648437 205.25671875 -87.76171875 205.7109375 C-93.35919999 208.9346178 -97.83885939 209.32316531 -104.1875 209.25 C-105.46451782 209.23767334 -105.46451782 209.23767334 -106.76733398 209.22509766 C-118.47819872 209.016795 -127.27931037 207.04979767 -136.23046875 198.9921875 C-148.05877823 186.60907927 -150.46119169 170.26961425 -150.10546875 153.75390625 C-150.07066406 152.84511719 -150.03585937 151.93632812 -150 151 C-150.74121094 150.86851562 -151.48242188 150.73703125 -152.24609375 150.6015625 C-168.97337235 146.94766051 -182.9811738 135.03143561 -192 121 C-193.87949347 117.74253592 -195.50267956 114.44837435 -197 111 C-197.3196875 110.319375 -197.639375 109.63875 -197.96875 108.9375 C-203.70021702 94.92724728 -199.58543834 76.90727019 -194.46875 63.38671875 C-187.74148584 47.87464953 -176.41343294 37.42355593 -161 31 C-153.20067236 27.99691068 -146.18914691 26.92598728 -137.85546875 26.89453125 C-136.57494629 26.88542725 -135.29442383 26.87632324 -133.97509766 26.86694336 C-131.41300631 26.8722191 -128.85047644 26.92465766 -126.29052734 27.02954102 C-119.31776743 27.10600111 -119.31776743 27.10600111 -113.31835938 23.92675781 C-111.03038853 21.38446214 -109.00250433 18.7705125 -107 16 C-77.91039232 -17.06315316 -37.32229864 -24.13184456 0 0 Z " fill="#C6BAFB" transform="translate(430,277)"/>
<path d="M0 0 C4.16625 -0.0825 8.3325 -0.165 12.625 -0.25 C13.92775879 -0.28641602 15.23051758 -0.32283203 16.57275391 -0.36035156 C23.01609138 -0.42220122 27.15402933 -0.44006885 32 4 C32.639375 4.5775 33.27875 5.155 33.9375 5.75 C35.57757252 9.22309474 35.04592867 12.36636633 34 16 C32.4375 17.875 32.4375 17.875 31 19 C31 19.66 31 20.32 31 21 C32.2065625 22.0828125 32.2065625 22.0828125 33.4375 23.1875 C36.5684498 26.62390832 37.08106723 28.37916792 37 33 C34.59290554 38.00675648 32.05325005 39.90869923 27 42 C23.84033203 42.34057617 23.84033203 42.34057617 20.5078125 42.29296875 C19.4264502 42.28547607 18.34508789 42.2779834 17.23095703 42.27026367 C15.87599121 42.24295166 14.52102539 42.21563965 13.125 42.1875 C8.79375 42.125625 4.4625 42.06375 0 42 C0 28.14 0 14.28 0 0 Z " fill="#9083F2" transform="translate(238,517)"/>
<path d="M0 0 C3.63 0 7.26 0 11 0 C11.77085937 1.43214844 12.54171875 2.86429688 13.3359375 4.33984375 C14.34866519 6.20588829 15.36170201 8.07176508 16.375 9.9375 C16.88289063 10.88302734 17.39078125 11.82855469 17.9140625 12.80273438 C18.40390625 13.70185547 18.89375 14.60097656 19.3984375 15.52734375 C20.07398682 16.77632446 20.07398682 16.77632446 20.76318359 18.05053711 C21.85548906 20.14260729 21.85548906 20.14260729 24 21 C24.24621094 20.16082031 24.49242187 19.32164062 24.74609375 18.45703125 C26.1523988 14.57983507 27.97952916 11.2311588 30.0625 7.6875 C30.42666016 7.05521484 30.79082031 6.42292969 31.16601562 5.77148438 C33.83996333 1.16003667 33.83996333 1.16003667 35 0 C38.3 0 41.6 0 45 0 C45 13.86 45 27.72 45 42 C41.7 42 38.4 42 35 42 C34.67 34.74 34.34 27.48 34 20 C30.79297359 25.87546993 30.79297359 25.87546993 27.59814453 31.75756836 C27.19708496 32.48596924 26.79602539 33.21437012 26.3828125 33.96484375 C25.97434082 34.7137085 25.56586914 35.46257324 25.14501953 36.23413086 C24 38 24 38 22 39 C18.7 33.06 15.4 27.12 12 21 C11.67 27.93 11.34 34.86 11 42 C7.37 42 3.74 42 0 42 C0 28.14 0 14.28 0 0 Z " fill="#9184F2" transform="translate(353,517)"/>
<path d="M0 0 C10.89 0 21.78 0 33 0 C33 3.3 33 6.6 33 10 C25.74 10 18.48 10 11 10 C11 11.98 11 13.96 11 16 C17.6 16 24.2 16 31 16 C31 18.97 31 21.94 31 25 C24.07 25 17.14 25 10 25 C10 27.64 10 30.28 10 33 C17.59 33 25.18 33 33 33 C33 35.97 33 38.94 33 42 C22.11 42 11.22 42 0 42 C0 28.14 0 14.28 0 0 Z " fill="#9184F2" transform="translate(412,517)"/>
<path d="M0 0 C3.63 0 7.26 0 11 0 C11.01981934 0.79696289 11.03963867 1.59392578 11.06005859 2.41503906 C11.15533248 6.02702472 11.26500307 9.63843399 11.375 13.25 C11.4059375 14.50425781 11.436875 15.75851562 11.46875 17.05078125 C11.50742188 18.25605469 11.54609375 19.46132813 11.5859375 20.703125 C11.6173584 21.81333008 11.6487793 22.92353516 11.68115234 24.06738281 C11.99089737 26.9162781 12.43462483 28.6230776 14 31 C17.05693322 32.52846661 19.62984547 32.23242445 23 32 C26.1850357 30.23984869 26.83296972 29.50109084 28 26 C28.14986411 24.0093556 28.24828038 22.01464609 28.31640625 20.01953125 C28.35830078 18.85615234 28.40019531 17.69277344 28.44335938 16.49414062 C28.48267578 15.27919922 28.52199219 14.06425781 28.5625 12.8125 C28.60568359 11.58595703 28.64886719 10.35941406 28.69335938 9.09570312 C28.7995309 6.06391619 28.90157952 3.03204685 29 0 C32.3 0 35.6 0 39 0 C39.14977605 4.1073201 39.25787183 8.21355567 39.32958984 12.32299805 C39.3595233 13.71683482 39.40028771 15.11048713 39.45263672 16.50366211 C39.74230769 24.41849548 39.78548322 30.93711998 34.62646484 37.37866211 C30.40490589 41.58691384 24.73648299 43.11923437 18.875 43.5 C12.87072427 42.72525474 8.20953706 40.67668352 4.125 36.125 C0.6594849 31.02865426 -0.25350297 26.61781193 -0.1953125 20.5078125 C-0.18886719 19.30898438 -0.18242187 18.11015625 -0.17578125 16.875 C-0.15902344 15.6375 -0.14226562 14.4 -0.125 13.125 C-0.11597656 11.86429688 -0.10695312 10.60359375 -0.09765625 9.3046875 C-0.07415808 6.2029296 -0.04130334 3.10156348 0 0 Z " fill="#9185F2" transform="translate(185,517)"/>
<path d="M0 0 C2.17578125 1.37890625 2.17578125 1.37890625 5.23828125 3.87890625 C4.03446677 6.37252196 2.78399403 8.56033708 1.23828125 10.87890625 C-1.1479444 10.32823879 -3.29072841 9.66730239 -5.57421875 8.75390625 C-9.32320957 7.72477151 -11.98267392 8.12309728 -15.76171875 8.87890625 C-15.571576 10.85102063 -15.571576 10.85102063 -14.76171875 12.87890625 C-12.98490518 13.87969804 -12.98490518 13.87969804 -10.76171875 14.37890625 C-4.71510506 16.17263854 0.96392158 17.98360653 5.86328125 22.06640625 C7.88302962 26.19770973 7.46052427 29.51375262 6.23828125 33.87890625 C4.06130135 37.73048607 1.53039426 39.81597321 -2.65234375 41.37109375 C-10.65593477 43.29788418 -18.70377882 42.14527292 -25.76171875 37.87890625 C-27.54296875 35.73828125 -27.54296875 35.73828125 -28.76171875 33.87890625 C-27.11171875 31.89890625 -25.46171875 29.91890625 -23.76171875 27.87890625 C-23.21644531 28.16765625 -22.67117187 28.45640625 -22.109375 28.75390625 C-16.32949506 31.59938561 -12.18604373 32.2867999 -5.76171875 31.87890625 C-5.10171875 30.22890625 -4.44171875 28.57890625 -3.76171875 26.87890625 C-4.83550781 26.65976562 -5.90929687 26.440625 -7.015625 26.21484375 C-21.55446923 23.06089654 -21.55446923 23.06089654 -25.74609375 18.71484375 C-27.87148289 14.87279415 -27.74128115 11.06925652 -26.76171875 6.87890625 C-21.77260567 -2.63159056 -9.21438214 -3.74049176 0 0 Z " fill="#9184F2" transform="translate(166.76171875,518.12109375)"/>
<path d="M0 0 C2.97 0.495 2.97 0.495 6 1 C5.57939006 8.9809555 3.79583785 16.51805474 1.79251099 24.22463989 C1.23624722 26.36542773 0.68905679 28.50835973 0.14428711 30.65209961 C-0.57968269 33.50100987 -1.30583982 36.34934483 -2.03369141 39.19726562 C-3.20593981 43.81043922 -4.33972347 48.4311017 -5.4375 53.0625 C-5.62006348 53.83021729 -5.80262695 54.59793457 -5.99072266 55.38891602 C-7.22061995 60.60049154 -8.41732256 65.81945439 -9.60725403 71.04026794 C-10.4091169 74.55736522 -11.21387761 78.07379829 -12.01834106 81.59030151 C-12.61272935 84.19620334 -13.20187009 86.80325403 -13.79077148 89.41040039 C-14.1649806 91.04969244 -14.53940228 92.68893599 -14.9140625 94.328125 C-15.16231026 95.43803047 -15.16231026 95.43803047 -15.41557312 96.57035828 C-16.62578542 101.83242064 -18.21515558 106.90533021 -20 112 C-22.31 111.34 -24.62 110.68 -27 110 C-26.33188766 105.67089871 -25.42711596 101.46527741 -24.36108398 97.21728516 C-24.19822403 96.56555328 -24.03536407 95.91382141 -23.86756897 95.24234009 C-23.32930702 93.09068207 -22.787708 90.9398789 -22.24609375 88.7890625 C-21.8629151 87.26009252 -21.47994925 85.73106919 -21.09718323 84.20199585 C-20.08470985 80.15973443 -19.06942816 76.11818355 -18.05352783 72.07678223 C-17.05165724 68.08935118 -16.05225759 64.10130123 -15.05273438 60.11328125 C-13.67522454 54.61801801 -12.29690789 49.12295843 -10.91750526 43.62817001 C-8.40925665 33.63637375 -5.90790578 23.64286317 -3.41015625 13.6484375 C-3.23476255 12.94662983 -3.05936886 12.24482216 -2.8786602 11.52174759 C-1.91889613 7.68121768 -0.95934487 3.84063465 0 0 Z " fill="#C8BCFB" transform="translate(461,171)"/>
<path d="M0 0 C7 0 7 0 9.15234375 1.76904297 C9.74144531 2.58518066 10.33054687 3.40131836 10.9375 4.2421875 C11.60523438 5.14453125 12.27296875 6.046875 12.9609375 6.9765625 C13.63382813 7.93304687 14.30671875 8.88953125 15 9.875 C15.67289063 10.7928125 16.34578125 11.710625 17.0390625 12.65625 C21.45227923 18.70525362 25.70598338 24.86569055 30 31 C30.33 20.77 30.66 10.54 31 0 C32.98 0 34.96 0 37 0 C37 13.86 37 27.72 37 42 C30 42 30 42 27.83178711 40.19921875 C27.2363208 39.37035156 26.64085449 38.54148437 26.02734375 37.6875 C25.35509766 36.77613281 24.68285156 35.86476563 23.99023438 34.92578125 C23.31283203 33.96027344 22.63542969 32.99476563 21.9375 32 C21.25623047 31.06542969 20.57496094 30.13085938 19.87304688 29.16796875 C18.58463448 27.3981035 17.30537296 25.62150994 16.03881836 23.8359375 C13.41355414 20.18427073 10.69844505 16.59792673 8 13 C7.67 22.57 7.34 32.14 7 42 C4.69 42 2.38 42 0 42 C0 28.14 0 14.28 0 0 Z " fill="#6B65E9" transform="translate(574,517)"/>
<path d="M0 0 C10.23 0 20.46 0 31 0 C31 1.98 31 3.96 31 6 C22.75 6 14.5 6 6 6 C6 9.96 6 13.92 6 18 C13.26 18 20.52 18 28 18 C28 19.98 28 21.96 28 24 C20.74 24 13.48 24 6 24 C6 27.96 6 31.92 6 36 C14.25 36 22.5 36 31 36 C31 37.98 31 39.96 31 42 C20.77 42 10.54 42 0 42 C0 28.14 0 14.28 0 0 Z " fill="#6862E9" transform="translate(627,517)"/>
<path d="M0 0 C1.98 0 3.96 0 6 0 C6 5.94 6 11.88 6 18 C13.59 18 21.18 18 29 18 C29 12.06 29 6.12 29 0 C30.98 0 32.96 0 35 0 C35 13.86 35 27.72 35 42 C33.02 42 31.04 42 29 42 C29 36.06 29 30.12 29 24 C21.41 24 13.82 24 6 24 C6 29.94 6 35.88 6 42 C4.02 42 2.04 42 0 42 C0 28.14 0 14.28 0 0 Z " fill="#645EE8" transform="translate(502,517)"/>
<path d="M0 0 C3.3 0 6.6 0 10 0 C10 10.89 10 21.78 10 33 C16.6 33 23.2 33 30 33 C30 35.97 30 38.94 30 42 C20.1 42 10.2 42 0 42 C0 28.14 0 14.28 0 0 Z " fill="#8F82F2" transform="translate(287,517)"/>
<path d="M0 0 C5.12972666 2.48601581 5.12972666 2.48601581 6.47265625 5.171875 C5.15265625 6.491875 3.83265625 7.811875 2.47265625 9.171875 C1.97636719 8.883125 1.48007812 8.594375 0.96875 8.296875 C-3.7262212 5.73112224 -7.05130777 4.63500873 -12.52734375 5.171875 C-13.51734375 5.501875 -14.50734375 5.831875 -15.52734375 6.171875 C-15.52734375 8.811875 -15.52734375 11.451875 -15.52734375 14.171875 C-14.61855469 14.42710937 -14.61855469 14.42710937 -13.69140625 14.6875 C-9.10283487 16.01465603 -4.56676544 17.44124365 -0.08984375 19.109375 C0.71324219 19.40714844 1.51632812 19.70492187 2.34375 20.01171875 C4.90027935 21.40490997 6.0136449 22.66091189 7.47265625 25.171875 C8.28607443 28.90004166 8.28922102 32.58242999 6.5234375 36.01953125 C3.96055971 39.31003996 1.51426353 41.27374005 -2.52734375 42.171875 C-11.16354477 43.14325789 -17.38850649 40.93109984 -24.52734375 36.171875 C-23.86734375 34.851875 -23.20734375 33.531875 -22.52734375 32.171875 C-18.52734375 32.171875 -18.52734375 32.171875 -15.27734375 33.671875 C-10.37483463 35.91181451 -5.66338829 35.88388985 -0.52734375 34.171875 C0.20600054 30.19433372 0.20600054 30.19433372 0.47265625 26.171875 C-0.14480469 25.99011719 -0.76226562 25.80835938 -1.3984375 25.62109375 C-3.17393182 25.09412055 -4.9472489 24.55977627 -6.71875 24.01953125 C-8.49094968 23.48466709 -10.2691437 22.96894055 -12.0546875 22.48046875 C-15.68348987 21.42382913 -18.15199688 20.48313826 -21.08984375 18.046875 C-23.10268106 14.02120038 -23.32880337 10.58791751 -22.52734375 6.171875 C-17.68263634 -1.96031243 -8.57682048 -2.81033376 0 0 Z " fill="#6862E8" transform="translate(480.52734375,517.828125)"/>
<path d="M0 0 C5.12972666 2.48601581 5.12972666 2.48601581 6.47265625 5.171875 C5.15265625 6.491875 3.83265625 7.811875 2.47265625 9.171875 C1.97636719 8.883125 1.48007812 8.594375 0.96875 8.296875 C-3.7262212 5.73112224 -7.05130777 4.63500873 -12.52734375 5.171875 C-13.51734375 5.501875 -14.50734375 5.831875 -15.52734375 6.171875 C-15.52734375 8.811875 -15.52734375 11.451875 -15.52734375 14.171875 C-14.61855469 14.42710937 -14.61855469 14.42710937 -13.69140625 14.6875 C-9.10283487 16.01465603 -4.56676544 17.44124365 -0.08984375 19.109375 C0.71324219 19.40714844 1.51632812 19.70492187 2.34375 20.01171875 C4.90236471 21.4060464 6.0175626 22.65520359 7.47265625 25.171875 C8.34438875 29.56195127 8.05032191 33.14985115 5.84765625 37.046875 C0.88529521 41.48688224 -3.38244641 42.72295589 -9.92578125 42.53515625 C-15.41706127 41.76835589 -19.97024137 39.20994325 -24.52734375 36.171875 C-23.86734375 34.851875 -23.20734375 33.531875 -22.52734375 32.171875 C-18.52734375 32.171875 -18.52734375 32.171875 -15.27734375 33.671875 C-10.37483463 35.91181451 -5.66338829 35.88388985 -0.52734375 34.171875 C0.20600054 30.19433372 0.20600054 30.19433372 0.47265625 26.171875 C-0.14480469 25.99011719 -0.76226563 25.80835938 -1.3984375 25.62109375 C-3.17393182 25.09412055 -4.9472489 24.55977627 -6.71875 24.01953125 C-8.49094968 23.48466709 -10.2691437 22.96894055 -12.0546875 22.48046875 C-15.68348987 21.42382913 -18.15199688 20.48313826 -21.08984375 18.046875 C-23.10268106 14.02120038 -23.32880337 10.58791751 -22.52734375 6.171875 C-17.68263634 -1.96031243 -8.57682048 -2.81033376 0 0 Z " fill="#6862E8" transform="translate(693.52734375,517.828125)"/>
<path d="M0 0 C3.63 0 7.26 0 11 0 C11 13.86 11 27.72 11 42 C7.37 42 3.74 42 0 42 C0 28.14 0 14.28 0 0 Z " fill="#8E81F2" transform="translate(328,517)"/>
<path d="M0 0 C2.61967629 1.30983815 2.79756915 2.54834111 4 5.1875 C6.65585756 10.226408 10.00487155 12.25505097 14.98828125 14.80859375 C15.65214844 15.20175781 16.31601562 15.59492188 17 16 C17 16.66 17 17.32 17 18 C16.39671875 18.30292969 15.7934375 18.60585938 15.171875 18.91796875 C7.89122488 22.73443857 4.49513789 26.48545353 1 34 C-1.30872453 31.88202479 -2.6426467 29.89992243 -4.0625 27.125 C-7.12232802 22.0063988 -11.62437766 20.17112514 -17 18 C-17 17.34 -17 16.68 -17 16 C-16.34773438 15.74347656 -15.69546875 15.48695313 -15.0234375 15.22265625 C-7.21912507 11.80395302 -3.74948446 7.49896891 0 0 Z " fill="#FDFCFE" transform="translate(310,344)"/>
<path d="M0 0 C0.66 0 1.32 0 2 0 C2.53625 1.051875 3.0725 2.10375 3.625 3.1875 C6.52392898 8.26576566 10.56774006 11.70173618 16 14 C14.04297985 15.3046801 12.06417543 16.57742367 10.0625 17.8125 C7.0218243 19.98441121 5.17933418 21.99402182 3 25 C2.4225 25.763125 1.845 26.52625 1.25 27.3125 C0.8375 27.869375 0.425 28.42625 0 29 C-0.23074219 28.46890625 -0.46148437 27.9378125 -0.69921875 27.390625 C-3.34130816 21.66783845 -5.89741309 18.37892752 -11.8125 15.75 C-12.8953125 15.37875 -12.8953125 15.37875 -14 15 C-13 13 -13 13 -10.3125 11.8125 C-5.39180288 9.12004309 -1.78817188 5.36451565 0 0 Z " fill="#FCFBFE" transform="translate(330,307)"/>
<path d="M0 0 C1.09416034 1.64124051 2.18531002 3.28456276 3.26171875 4.9375 C6.68752012 9.89317979 9.24494287 12.15838172 15 14 C15 14.66 15 15.32 15 16 C13.96875 16.350625 12.9375 16.70125 11.875 17.0625 C6.89291599 19.1687469 3.40027212 23.19945576 1 28 C0.34 28 -0.32 28 -1 28 C-1.93812468 26.55930853 -2.87375925 25.1168955 -3.79296875 23.6640625 C-6.42610066 20.03391947 -9.73239311 17.42253563 -14 16 C-14 15.34 -14 14.68 -14 14 C-12.80375 13.54625 -11.6075 13.0925 -10.375 12.625 C-4.87368428 9.94286387 -2.66796829 5.29551281 0 0 Z " fill="#9286F2" transform="translate(583,383)"/>
<path d="M0 0 C1 1.33333333 2 2.66666667 3 4 C3.556875 4.70125 4.11375 5.4025 4.6875 6.125 C6 8 6 8 6 10 C8.93720508 11.52299523 11.9168649 12.80100302 15 14 C13.12575466 15.42442646 11.2640412 16.8307736 9.28125 18.1015625 C5.05640851 20.87635246 2.91584023 23.15405118 1 28 C0.34 28 -0.32 28 -1 28 C-2.0078125 26.42578125 -2.0078125 26.42578125 -3.125 24.3125 C-5.87422573 19.66440965 -9.27155819 17.44048609 -14 15 C-13 13 -13 13 -10.3125 11.875 C-5.4953054 9.14828608 -2.46535041 4.93070082 0 0 Z " fill="#9185F2" transform="translate(297,245)"/>
<path d="M0 0 C2.31 0 4.62 0 7 0 C7 13.86 7 27.72 7 42 C4.69 42 2.38 42 0 42 C0 28.14 0 14.28 0 0 Z " fill="#615BE8" transform="translate(552,517)"/>
<path d="M0 0 C0.53625 0.7425 1.0725 1.485 1.625 2.25 C4.15264739 5.17674961 6.71827368 6.98621339 10 9 C9.2575 9.53625 8.515 10.0725 7.75 10.625 C4.82325039 13.15264739 3.01378661 15.71827368 1 19 C-2.33333333 15.66666667 -5.66666667 12.33333333 -9 9 C-8.071875 8.443125 -7.14375 7.88625 -6.1875 7.3125 C-3.0580593 5.04212145 -1.70245949 3.40491897 0 0 Z " fill="#9285F2" transform="translate(342,220)"/>
<path d="M0 0 C0.53625 0.7425 1.0725 1.485 1.625 2.25 C4.15264739 5.17674961 6.71827368 6.98621339 10 9 C9.13375 9.61875 9.13375 9.61875 8.25 10.25 C5.35187827 12.50409468 2.65812835 14.6837433 1 18 C0.34 18 -0.32 18 -1 18 C-1.598125 17.05125 -2.19625 16.1025 -2.8125 15.125 C-5.10464788 11.85050303 -6.24180292 11.04394363 -10 10 C-9.278125 9.46375 -8.55625 8.9275 -7.8125 8.375 C-4.752158 5.7907112 -2.48779989 3.12751986 0 0 Z " fill="#FCFBFE" transform="translate(280,314)"/>
<path d="M0 0 C2.29141286 -0.05384521 4.58318188 -0.09272087 6.875 -0.125 C8.78925781 -0.15980469 8.78925781 -0.15980469 10.7421875 -0.1953125 C14 0 14 0 16 2 C15.44444444 6.55555556 15.44444444 6.55555556 14 8 C11.64686445 8.07271741 9.29166332 8.08370868 6.9375 8.0625 C5.64714844 8.05347656 4.35679687 8.04445313 3.02734375 8.03515625 C2.02832031 8.02355469 1.02929688 8.01195312 0 8 C0 5.36 0 2.72 0 0 Z " fill="#FBFAFE" transform="translate(248,542)"/>
<path d="M0 0 C1.77049689 -0.05410687 3.54146849 -0.09284119 5.3125 -0.125 C6.29863281 -0.14820313 7.28476563 -0.17140625 8.30078125 -0.1953125 C11 0 11 0 14 2 C13.625 4.4375 13.625 4.4375 13 7 C10.35541621 8.32229189 8.32238699 8.09677194 5.375 8.0625 C4.37210938 8.05347656 3.36921875 8.04445313 2.3359375 8.03515625 C1.56507813 8.02355469 0.79421875 8.01195312 0 8 C0 5.36 0 2.72 0 0 Z " fill="#F8F7FE" transform="translate(248,526)"/>
<path d="M0 0 C2.66666667 2.66666667 5.33333333 5.33333333 8 8 C7.21625 8.598125 6.4325 9.19625 5.625 9.8125 C2.85425677 11.91085249 2.85425677 11.91085249 1 15 C0.34 15 -0.32 15 -1 15 C-2.37073786 13.36395804 -3.70055256 11.69321939 -5 10 C-5.98230498 8.9826127 -6.97469597 7.97403883 -8 7 C-7.236875 6.5875 -6.47375 6.175 -5.6875 5.75 C-3.0633358 4.04124191 -1.69678024 2.58982247 0 0 Z " fill="#968AF2" transform="translate(583,335)"/>
<path d="M0 0 C0.5775 0.7425 1.155 1.485 1.75 2.25 C3.72253526 4.66087643 5.76044282 6.84042701 8 9 C6.8553125 9.8971875 6.8553125 9.8971875 5.6875 10.8125 C3.6516425 12.46959332 1.8021721 14.10297674 0 16 C-0.5775 15.236875 -1.155 14.47375 -1.75 13.6875 C-3.71703093 11.33799083 -5.48476744 9.70676495 -8 8 C-7.05125 7.4225 -6.1025 6.845 -5.125 6.25 C-2.23865902 4.17183449 -1.15904259 3.24531925 0 0 Z " fill="#FBFBFE" transform="translate(342,373)"/>
<path d="M0 0 C1.65 1.65 3.3 3.3 5 5 C3.71034824 6.37562854 2.37310707 7.70766393 1 9 C0.34 9 -0.32 9 -1 9 C-2.625 6.5 -2.625 6.5 -4 4 C-2.68 2.68 -1.36 1.36 0 0 Z " fill="#F8F6FE" transform="translate(358,347)"/>
<path d="M0 0 C0.66 0 1.32 0 2 0 C3.625 2.5 3.625 2.5 5 5 C4.01 5.99 3.02 6.98 2 8 C0.68 7.34 -0.64 6.68 -2 6 C-2 3 -2 3 0 0 Z " fill="#998DF3" transform="translate(550,448)"/>
</svg>
